<svg width="375" height="90" viewBox="0 0 375 90" fill="none" xmlns="http://www.w3.org/2000/svg">
<rect width="375" height="90" fill="white"/>
<path d="M45.2493 60.2C45.2493 60.584 45.3293 60.928 45.4893 61.232C45.6546 61.5307 45.8813 61.7653 46.1693 61.936C46.4573 62.1067 46.7853 62.192 47.1533 62.192C47.5266 62.192 47.8546 62.1067 48.1373 61.936C48.4253 61.7653 48.6493 61.5307 48.8093 61.232C48.9746 60.928 49.0573 60.584 49.0573 60.2C49.0573 59.816 48.9773 59.4747 48.8173 59.176C48.6573 58.872 48.4333 58.6347 48.1453 58.464C47.8626 58.2933 47.532 58.208 47.1533 58.208C46.7853 58.208 46.4573 58.2933 46.1693 58.464C45.8813 58.6347 45.6546 58.872 45.4893 59.176C45.3293 59.4747 45.2493 59.816 45.2493 60.2ZM44.2493 60.2C44.2493 59.7787 44.3213 59.392 44.4653 59.04C44.6093 58.688 44.812 58.384 45.0733 58.128C45.34 57.8667 45.6493 57.664 46.0013 57.52C46.3586 57.376 46.7426 57.304 47.1533 57.304C47.5746 57.304 47.9613 57.376 48.3133 57.52C48.6653 57.664 48.972 57.8667 49.2333 58.128C49.5 58.384 49.7053 58.688 49.8493 59.04C49.9933 59.392 50.0653 59.7787 50.0653 60.2C50.0653 60.616 49.9933 61.0027 49.8493 61.36C49.7053 61.7173 49.5026 62.0267 49.2413 62.288C48.98 62.5493 48.6706 62.7547 48.3133 62.904C47.9613 63.048 47.5746 63.12 47.1533 63.12C46.7373 63.12 46.3506 63.048 45.9933 62.904C45.636 62.7547 45.3266 62.5493 45.0653 62.288C44.8093 62.0267 44.6093 61.7173 44.4653 61.36C44.3213 61.0027 44.2493 60.616 44.2493 60.2ZM52.5354 60.328H53.5594L55.4554 63H54.3194L52.5354 60.328ZM51.3834 57.4H52.3274V63H51.3834V57.4ZM51.9434 58.216V57.4H53.1114C53.5167 57.4 53.8687 57.472 54.1674 57.616C54.4714 57.76 54.706 57.9627 54.8714 58.224C55.0367 58.48 55.1194 58.784 55.1194 59.136C55.1194 59.488 55.0367 59.7947 54.8714 60.056C54.706 60.3173 54.4714 60.52 54.1674 60.664C53.8687 60.808 53.5167 60.88 53.1114 60.88H51.9434V60.104H53.0714C53.2847 60.104 53.4714 60.0667 53.6314 59.992C53.7967 59.9173 53.9247 59.8107 54.0154 59.672C54.106 59.528 54.1514 59.3573 54.1514 59.16C54.1514 58.9573 54.106 58.7867 54.0154 58.648C53.9247 58.5093 53.7967 58.4027 53.6314 58.328C53.4714 58.2533 53.2847 58.216 53.0714 58.216H51.9434ZM56.5412 57.4H57.5012V63H56.5412V57.4ZM58.3492 63H57.1252V62.112H58.3252C58.6025 62.112 58.8585 62.072 59.0932 61.992C59.3279 61.912 59.5305 61.792 59.7012 61.632C59.8772 61.472 60.0132 61.272 60.1092 61.032C60.2105 60.792 60.2612 60.5147 60.2612 60.2C60.2612 59.8853 60.2105 59.608 60.1092 59.368C60.0132 59.128 59.8772 58.928 59.7012 58.768C59.5305 58.608 59.3279 58.488 59.0932 58.408C58.8585 58.328 58.6025 58.288 58.3252 58.288H57.1252V57.4H58.3492C58.9199 57.4 59.4212 57.5173 59.8532 57.752C60.2852 57.9813 60.6212 58.3067 60.8612 58.728C61.1065 59.144 61.2292 59.6347 61.2292 60.2C61.2292 60.7653 61.1065 61.2587 60.8612 61.68C60.6212 62.096 60.2852 62.4213 59.8532 62.656C59.4212 62.8853 58.9199 63 58.3492 63ZM63.1346 63V62.168H65.9586V63H63.1346ZM63.1346 58.232V57.4H65.9586V58.232H63.1346ZM63.1346 60.408V59.592H65.7986V60.408H63.1346ZM62.5506 57.4H63.4786V63H62.5506V57.4ZM68.6729 60.328H69.6969L71.5929 63H70.4569L68.6729 60.328ZM67.5209 57.4H68.4649V63H67.5209V57.4ZM68.0809 58.216V57.4H69.2489C69.6542 57.4 70.0062 57.472 70.3049 57.616C70.6089 57.76 70.8435 57.9627 71.0089 58.224C71.1742 58.48 71.2569 58.784 71.2569 59.136C71.2569 59.488 71.1742 59.7947 71.0089 60.056C70.8435 60.3173 70.6089 60.52 70.3049 60.664C70.0062 60.808 69.6542 60.88 69.2489 60.88H68.0809V60.104H69.2089C69.4222 60.104 69.6089 60.0667 69.7689 59.992C69.9342 59.9173 70.0622 59.8107 70.1529 59.672C70.2435 59.528 70.2889 59.3573 70.2889 59.16C70.2889 58.9573 70.2435 58.7867 70.1529 58.648C70.0622 58.5093 69.9342 58.4027 69.7689 58.328C69.6089 58.2533 69.4222 58.216 69.2089 58.216H68.0809ZM34.595 72.2C34.595 72.5947 34.683 72.9413 34.859 73.24C35.0403 73.5387 35.275 73.7707 35.563 73.936C35.8563 74.096 36.1737 74.176 36.515 74.176C36.7817 74.176 37.0217 74.1413 37.235 74.072C37.4483 74.0027 37.6403 73.9093 37.811 73.792C37.987 73.6693 38.139 73.5333 38.267 73.384V74.504C38.0323 74.696 37.779 74.8427 37.507 74.944C37.235 75.0453 36.8937 75.096 36.483 75.096C36.0723 75.096 35.6883 75.0267 35.331 74.888C34.979 74.7493 34.6723 74.5493 34.411 74.288C34.1497 74.0267 33.9443 73.72 33.795 73.368C33.651 73.0107 33.579 72.6213 33.579 72.2C33.579 71.7787 33.651 71.392 33.795 71.04C33.9443 70.6827 34.1497 70.3733 34.411 70.112C34.6723 69.8507 34.979 69.6507 35.331 69.512C35.6883 69.3733 36.0723 69.304 36.483 69.304C36.8937 69.304 37.235 69.3547 37.507 69.456C37.779 69.5573 38.0323 69.704 38.267 69.896V71.016C38.139 70.8667 37.987 70.7333 37.811 70.616C37.6403 70.4933 37.4483 70.3973 37.235 70.328C37.0217 70.2587 36.7817 70.224 36.515 70.224C36.1737 70.224 35.8563 70.3067 35.563 70.472C35.275 70.632 35.0403 70.8613 34.859 71.16C34.683 71.4533 34.595 71.8 34.595 72.2ZM40.5102 72.2C40.5102 72.584 40.5902 72.928 40.7502 73.232C40.9156 73.5307 41.1422 73.7653 41.4302 73.936C41.7182 74.1067 42.0462 74.192 42.4142 74.192C42.7876 74.192 43.1156 74.1067 43.3982 73.936C43.6862 73.7653 43.9102 73.5307 44.0702 73.232C44.2356 72.928 44.3182 72.584 44.3182 72.2C44.3182 71.816 44.2382 71.4747 44.0782 71.176C43.9182 70.872 43.6942 70.6347 43.4062 70.464C43.1236 70.2933 42.7929 70.208 42.4142 70.208C42.0462 70.208 41.7182 70.2933 41.4302 70.464C41.1422 70.6347 40.9156 70.872 40.7502 71.176C40.5902 71.4747 40.5102 71.816 40.5102 72.2ZM39.5102 72.2C39.5102 71.7787 39.5822 71.392 39.7262 71.04C39.8702 70.688 40.0729 70.384 40.3342 70.128C40.6009 69.8667 40.9102 69.664 41.2622 69.52C41.6196 69.376 42.0036 69.304 42.4142 69.304C42.8356 69.304 43.2222 69.376 43.5742 69.52C43.9262 69.664 44.2329 69.8667 44.4942 70.128C44.7609 70.384 44.9662 70.688 45.1102 71.04C45.2542 71.392 45.3262 71.7787 45.3262 72.2C45.3262 72.616 45.2542 73.0027 45.1102 73.36C44.9662 73.7173 44.7636 74.0267 44.5022 74.288C44.2409 74.5493 43.9316 74.7547 43.5742 74.904C43.2222 75.048 42.8356 75.12 42.4142 75.12C41.9982 75.12 41.6116 75.048 41.2542 74.904C40.8969 74.7547 40.5876 74.5493 40.3262 74.288C40.0702 74.0267 39.8702 73.7173 39.7262 73.36C39.5822 73.0027 39.5102 72.616 39.5102 72.2ZM50.7323 69.4H51.6603V75.28L47.5723 71.24V75H46.6443V69.12L50.7323 73.16V69.4ZM53.8861 70.248V69.4H56.3901V70.248H53.8861ZM53.8861 72.472V71.648H56.3101V72.472H53.8861ZM53.3021 69.4H54.2301V75H53.3021V69.4ZM57.874 69.4H58.826V75H57.874V69.4ZM61.6291 72.328H62.6531L64.5491 75H63.4131L61.6291 72.328ZM60.4771 69.4H61.4211V75H60.4771V69.4ZM61.0371 70.216V69.4H62.2051C62.6105 69.4 62.9625 69.472 63.2611 69.616C63.5651 69.76 63.7998 69.9627 63.9651 70.224C64.1305 70.48 64.2131 70.784 64.2131 71.136C64.2131 71.488 64.1305 71.7947 63.9651 72.056C63.7998 72.3173 63.5651 72.52 63.2611 72.664C62.9625 72.808 62.6105 72.88 62.2051 72.88H61.0371V72.104H62.1651C62.3785 72.104 62.5651 72.0667 62.7251 71.992C62.8905 71.9173 63.0185 71.8107 63.1091 71.672C63.1998 71.528 63.2451 71.3573 63.2451 71.16C63.2451 70.9573 63.1998 70.7867 63.1091 70.648C63.0185 70.5093 62.8905 70.4027 62.7251 70.328C62.5651 70.2533 62.3785 70.216 62.1651 70.216H61.0371ZM66.6749 71.592L66.2909 75H65.3149L66.0829 69.12L68.3789 72.92L70.6829 69.12L71.4509 75H70.4749L70.0829 71.592L68.3789 74.48L66.6749 71.592ZM73.3533 75V74.168H76.1773V75H73.3533ZM73.3533 70.232V69.4H76.1773V70.232H73.3533ZM73.3533 72.408V71.592H76.0173V72.408H73.3533ZM72.7693 69.4H73.6973V75H72.7693V69.4ZM77.7396 69.4H78.6996V75H77.7396V69.4ZM79.5476 75H78.3236V74.112H79.5236C79.801 74.112 80.057 74.072 80.2916 73.992C80.5263 73.912 80.729 73.792 80.8996 73.632C81.0756 73.472 81.2116 73.272 81.3076 73.032C81.409 72.792 81.4596 72.5147 81.4596 72.2C81.4596 71.8853 81.409 71.608 81.3076 71.368C81.2116 71.128 81.0756 70.928 80.8996 70.768C80.729 70.608 80.5263 70.488 80.2916 70.408C80.057 70.328 79.801 70.288 79.5236 70.288H78.3236V69.4H79.5476C80.1183 69.4 80.6196 69.5173 81.0516 69.752C81.4836 69.9813 81.8196 70.3067 82.0596 70.728C82.305 71.144 82.4276 71.6347 82.4276 72.2C82.4276 72.7653 82.305 73.2587 82.0596 73.68C81.8196 74.096 81.4836 74.4213 81.0516 74.656C80.6196 74.8853 80.1183 75 79.5476 75Z" fill="#275259"/>
<line x1="58" y1="32.5" x2="319" y2="32.5" stroke="#BDBDBD" stroke-dasharray="4 4"/>
<circle cx="231.5" cy="31.5" r="17.5" fill="url(#paint0_linear_22_505)"/>
<circle cx="144.5" cy="31.5" r="17.5" fill="url(#paint1_linear_22_505)"/>
<circle cx="318.5" cy="31.5" r="17.5" fill="url(#paint2_linear_22_505)"/>
<circle cx="144.5" cy="31.5" r="14.5" fill="#AEA8A9"/>
<circle cx="231.5" cy="31.5" r="14.5" fill="#AEA8A9"/>
<path d="M227.629 31.0297C228.559 31.0343 229.452 31.3916 230.129 32.0295H232.838C232.975 32.0273 233.108 31.9819 233.218 31.8995L234.998 30.4998V27.5005H232.998V26.2507H235.897C235.997 26.1182 236.107 25.9945 236.227 25.8808C236.448 25.665 236.71 25.4951 236.997 25.3809C237.316 25.2567 237.655 25.1956 237.997 25.2009V27.5005H236.247V30.6598C236.248 30.7726 236.279 30.8832 236.337 30.9797L237.807 33.4292C238.386 33.475 238.928 33.7311 239.332 34.1491C239.735 34.5672 239.972 35.1183 239.997 35.6987C239.968 36.3344 239.689 36.9329 239.221 37.3637C238.753 37.7945 238.133 38.0226 237.497 37.9982C236.861 38.0226 236.242 37.7945 235.773 37.3637C235.305 36.9329 235.026 36.3344 234.998 35.6987H224V34.499C224.009 34.0324 224.11 33.5723 224.298 33.145C224.485 32.7178 224.756 32.3318 225.093 32.0094C225.43 31.687 225.828 31.4344 226.263 31.2663C226.699 31.0982 227.163 31.0177 227.629 31.0297ZM227.629 32.2794C227.327 32.2674 227.025 32.3154 226.741 32.4207C226.458 32.526 226.198 32.6865 225.977 32.8929C225.755 33.0993 225.577 33.3475 225.452 33.6232C225.328 33.8988 225.259 34.1965 225.25 34.499H229.999C229.99 34.1974 229.921 33.9006 229.797 33.6256C229.673 33.3506 229.496 33.1028 229.275 32.8966C229.055 32.6903 228.796 32.5296 228.514 32.4237C228.231 32.3178 227.931 32.2688 227.629 32.2794ZM237.497 36.7485C237.802 36.7735 238.104 36.6772 238.338 36.4806C238.572 36.2841 238.719 36.003 238.747 35.6987C238.707 35.4034 238.555 35.1348 238.322 34.9487C238.089 34.7625 237.794 34.6731 237.497 34.6989C237.2 34.6731 236.905 34.7625 236.672 34.9487C236.439 35.1348 236.287 35.4034 236.247 35.6987C236.275 36.003 236.422 36.2841 236.656 36.4806C236.89 36.6772 237.193 36.7735 237.497 36.7485ZM235.408 34.499C235.674 34.1261 236.042 33.838 236.467 33.6691L235.378 31.7995L233.998 32.8593C233.672 33.1039 233.276 33.2371 232.868 33.2392H230.999C231.166 33.6381 231.251 34.0665 231.248 34.499H235.408Z" fill="white"/>
<path d="M225.25 25.001H228.999C229.167 24.9943 229.335 25.0216 229.492 25.0814C229.65 25.1412 229.794 25.2322 229.915 25.3489C230.036 25.4656 230.133 25.6057 230.199 25.7606C230.265 25.9156 230.299 26.0823 230.299 26.2507V29.2501C230.299 29.4185 230.265 29.5852 230.199 29.7402C230.133 29.8952 230.036 30.0352 229.915 30.1519C229.794 30.2687 229.65 30.3597 229.492 30.4194C229.335 30.4792 229.167 30.5066 228.999 30.4998H225.2C224.877 30.4869 224.572 30.3496 224.348 30.1166C224.124 29.8836 224 29.5731 224 29.2501V26.2507C224 25.9193 224.132 25.6014 224.366 25.367C224.6 25.1327 224.918 25.001 225.25 25.001ZM225.25 29.2501H228.999V26.2507H225.2L225.25 29.2501ZM227.629 36.7485C227.933 36.7709 228.234 36.6737 228.467 36.4776C228.701 36.2815 228.848 36.002 228.879 35.6987H230.129C230.1 36.3344 229.821 36.9329 229.353 37.3637C228.885 37.7945 228.265 38.0226 227.629 37.9982C226.993 38.0226 226.374 37.7945 225.905 37.3637C225.437 36.9329 225.158 36.3344 225.13 35.6987H226.379C226.407 36.0031 226.554 36.2841 226.788 36.4807C227.022 36.6772 227.325 36.7735 227.629 36.7485Z" fill="white"/>
<circle cx="318.5" cy="31.5" r="14.5" fill="#AEA8A9"/>
<path d="M142.385 36C142.793 36 143.184 35.8379 143.473 35.5494C143.761 35.2609 143.923 34.8696 143.923 34.4615C143.923 34.0535 143.761 33.6622 143.473 33.3737C143.184 33.0852 142.793 32.9231 142.385 32.9231C141.977 32.9231 141.585 33.0852 141.297 33.3737C141.008 33.6622 140.846 34.0535 140.846 34.4615C140.846 34.8696 141.008 35.2609 141.297 35.5494C141.585 35.8379 141.977 36 142.385 36ZM150.077 36C150.485 36 150.876 35.8379 151.165 35.5494C151.453 35.2609 151.615 34.8696 151.615 34.4615C151.615 34.0535 151.453 33.6622 151.165 33.3737C150.876 33.0852 150.485 32.9231 150.077 32.9231C149.669 32.9231 149.278 33.0852 148.989 33.3737C148.701 33.6622 148.538 34.0535 148.538 34.4615C148.538 34.8696 148.701 35.2609 148.989 35.5494C149.278 35.8379 149.669 36 150.077 36Z" stroke="white" stroke-width="1.5" stroke-miterlimit="1.5" stroke-linecap="round" stroke-linejoin="round"/>
<path d="M143.962 34.4615H147.769V26.4615C147.769 26.3391 147.721 26.2217 147.634 26.1352C147.547 26.0486 147.43 26 147.308 26H137M140.577 34.4615H139C138.939 34.4615 138.879 34.4496 138.823 34.4264C138.767 34.4032 138.717 34.3692 138.674 34.3264C138.631 34.2835 138.597 34.2326 138.574 34.1766C138.55 34.1206 138.538 34.0606 138.538 34V30.2308" stroke="white" stroke-width="1.5" stroke-linecap="round"/>
<path d="M137.769 28.3077H140.846" stroke="white" stroke-width="1.5" stroke-linecap="round" stroke-linejoin="round"/>
<path d="M147.769 28.3077H152.085C152.174 28.3077 152.261 28.3336 152.336 28.3822C152.411 28.4308 152.47 28.5 152.506 28.5815L153.883 31.68C153.909 31.7388 153.923 31.8025 153.923 31.8669V34C153.923 34.0606 153.911 34.1206 153.888 34.1766C153.865 34.2326 153.831 34.2835 153.788 34.3263C153.745 34.3692 153.694 34.4032 153.638 34.4264C153.582 34.4496 153.522 34.4615 153.462 34.4615H152M147.769 34.4615H148.539" stroke="white" stroke-width="1.5" stroke-linecap="round"/>
<circle cx="57.5" cy="31.5" r="17.5" fill="url(#paint3_linear_22_505)"/>
<circle cx="57.5" cy="31.5" r="14.5" fill="#EA92AA"/>
<path d="M57.1111 37.6825V31.5175L51.7778 28.39V34.555L57.1111 37.6825ZM58.8889 37.6825L64.2222 34.555V28.39L58.8889 31.5175V37.6825ZM57.1111 39.7525L50.8889 36.13C50.6074 35.965 50.389 35.7475 50.2338 35.4775C50.0785 35.2075 50.0006 34.9075 50 34.5775V27.4225C50 27.0925 50.0779 26.7925 50.2338 26.5225C50.3896 26.2525 50.608 26.035 50.8889 25.87L57.1111 22.2475C57.3926 22.0825 57.6889 22 58 22C58.3111 22 58.6074 22.0825 58.8889 22.2475L65.1111 25.87C65.3926 26.035 65.6113 26.2525 65.7671 26.5225C65.923 26.7925 66.0006 27.0925 66 27.4225V34.5775C66 34.9075 65.9224 35.2075 65.7671 35.4775C65.6118 35.7475 65.3932 35.965 65.1111 36.13L58.8889 39.7525C58.6074 39.9175 58.3111 40 58 40C57.6889 40 57.3926 39.9175 57.1111 39.7525ZM61.5556 27.8725L63.2667 26.8825L58 23.8L56.2667 24.8125L61.5556 27.8725ZM58 29.965L59.7333 28.9525L54.4667 25.87L52.7333 26.8825L58 29.965Z" fill="white"/>
<path d="M314.2 31.4L317.8 34.4L322.6 28.4M318.4 39.8C317.297 39.8 316.205 39.5827 315.185 39.1606C314.166 38.7384 313.24 38.1197 312.46 37.3397C311.68 36.5597 311.062 35.6337 310.639 34.6145C310.217 33.5954 310 32.5031 310 31.4C310 30.2969 310.217 29.2046 310.639 28.1855C311.062 27.1663 311.68 26.2403 312.46 25.4603C313.24 24.6803 314.166 24.0616 315.185 23.6394C316.205 23.2173 317.297 23 318.4 23C320.628 23 322.764 23.885 324.34 25.4603C325.915 27.0356 326.8 29.1722 326.8 31.4C326.8 33.6278 325.915 35.7644 324.34 37.3397C322.764 38.915 320.628 39.8 318.4 39.8Z" stroke="white" stroke-width="1.5"/>
<defs>
<linearGradient id="paint0_linear_22_505" x1="231.5" y1="14" x2="231.5" y2="49" gradientUnits="userSpaceOnUse">
<stop stop-color="#2C292A" stop-opacity="0.35"/>
<stop offset="1" stop-opacity="0"/>
</linearGradient>
<linearGradient id="paint1_linear_22_505" x1="144.5" y1="14" x2="144.5" y2="49" gradientUnits="userSpaceOnUse">
<stop stop-color="#2C292A" stop-opacity="0.35"/>
<stop offset="1" stop-opacity="0"/>
</linearGradient>
<linearGradient id="paint2_linear_22_505" x1="318.5" y1="14" x2="318.5" y2="49" gradientUnits="userSpaceOnUse">
<stop stop-color="#2C292A" stop-opacity="0.35"/>
<stop offset="1" stop-opacity="0"/>
</linearGradient>
<linearGradient id="paint3_linear_22_505" x1="57.5" y1="14" x2="57.5" y2="49" gradientUnits="userSpaceOnUse">
<stop stop-color="#DF6389" stop-opacity="0.35"/>
<stop offset="1" stop-color="#DF6389" stop-opacity="0"/>
</linearGradient>
</defs>
</svg>
