<svg width="375" height="90" viewBox="0 0 375 90" fill="none" xmlns="http://www.w3.org/2000/svg">
<rect width="375" height="90" fill="white"/>
<path d="M45.2493 60.2C45.2493 60.584 45.3293 60.928 45.4893 61.232C45.6546 61.5307 45.8813 61.7653 46.1693 61.936C46.4573 62.1067 46.7853 62.192 47.1533 62.192C47.5266 62.192 47.8546 62.1067 48.1373 61.936C48.4253 61.7653 48.6493 61.5307 48.8093 61.232C48.9746 60.928 49.0573 60.584 49.0573 60.2C49.0573 59.816 48.9773 59.4747 48.8173 59.176C48.6573 58.872 48.4333 58.6347 48.1453 58.464C47.8626 58.2933 47.532 58.208 47.1533 58.208C46.7853 58.208 46.4573 58.2933 46.1693 58.464C45.8813 58.6347 45.6546 58.872 45.4893 59.176C45.3293 59.4747 45.2493 59.816 45.2493 60.2ZM44.2493 60.2C44.2493 59.7787 44.3213 59.392 44.4653 59.04C44.6093 58.688 44.812 58.384 45.0733 58.128C45.34 57.8667 45.6493 57.664 46.0013 57.52C46.3586 57.376 46.7426 57.304 47.1533 57.304C47.5746 57.304 47.9613 57.376 48.3133 57.52C48.6653 57.664 48.972 57.8667 49.2333 58.128C49.5 58.384 49.7053 58.688 49.8493 59.04C49.9933 59.392 50.0653 59.7787 50.0653 60.2C50.0653 60.616 49.9933 61.0027 49.8493 61.36C49.7053 61.7173 49.5026 62.0267 49.2413 62.288C48.98 62.5493 48.6706 62.7547 48.3133 62.904C47.9613 63.048 47.5746 63.12 47.1533 63.12C46.7373 63.12 46.3506 63.048 45.9933 62.904C45.636 62.7547 45.3266 62.5493 45.0653 62.288C44.8093 62.0267 44.6093 61.7173 44.4653 61.36C44.3213 61.0027 44.2493 60.616 44.2493 60.2ZM52.5354 60.328H53.5594L55.4554 63H54.3194L52.5354 60.328ZM51.3834 57.4H52.3274V63H51.3834V57.4ZM51.9434 58.216V57.4H53.1114C53.5167 57.4 53.8687 57.472 54.1674 57.616C54.4714 57.76 54.706 57.9627 54.8714 58.224C55.0367 58.48 55.1194 58.784 55.1194 59.136C55.1194 59.488 55.0367 59.7947 54.8714 60.056C54.706 60.3173 54.4714 60.52 54.1674 60.664C53.8687 60.808 53.5167 60.88 53.1114 60.88H51.9434V60.104H53.0714C53.2847 60.104 53.4714 60.0667 53.6314 59.992C53.7967 59.9173 53.9247 59.8107 54.0154 59.672C54.106 59.528 54.1514 59.3573 54.1514 59.16C54.1514 58.9573 54.106 58.7867 54.0154 58.648C53.9247 58.5093 53.7967 58.4027 53.6314 58.328C53.4714 58.2533 53.2847 58.216 53.0714 58.216H51.9434ZM56.5412 57.4H57.5012V63H56.5412V57.4ZM58.3492 63H57.1252V62.112H58.3252C58.6025 62.112 58.8585 62.072 59.0932 61.992C59.3279 61.912 59.5305 61.792 59.7012 61.632C59.8772 61.472 60.0132 61.272 60.1092 61.032C60.2105 60.792 60.2612 60.5147 60.2612 60.2C60.2612 59.8853 60.2105 59.608 60.1092 59.368C60.0132 59.128 59.8772 58.928 59.7012 58.768C59.5305 58.608 59.3279 58.488 59.0932 58.408C58.8585 58.328 58.6025 58.288 58.3252 58.288H57.1252V57.4H58.3492C58.9199 57.4 59.4212 57.5173 59.8532 57.752C60.2852 57.9813 60.6212 58.3067 60.8612 58.728C61.1065 59.144 61.2292 59.6347 61.2292 60.2C61.2292 60.7653 61.1065 61.2587 60.8612 61.68C60.6212 62.096 60.2852 62.4213 59.8532 62.656C59.4212 62.8853 58.9199 63 58.3492 63ZM63.1346 63V62.168H65.9586V63H63.1346ZM63.1346 58.232V57.4H65.9586V58.232H63.1346ZM63.1346 60.408V59.592H65.7986V60.408H63.1346ZM62.5506 57.4H63.4786V63H62.5506V57.4ZM68.6729 60.328H69.6969L71.5929 63H70.4569L68.6729 60.328ZM67.5209 57.4H68.4649V63H67.5209V57.4ZM68.0809 58.216V57.4H69.2489C69.6542 57.4 70.0062 57.472 70.3049 57.616C70.6089 57.76 70.8435 57.9627 71.0089 58.224C71.1742 58.48 71.2569 58.784 71.2569 59.136C71.2569 59.488 71.1742 59.7947 71.0089 60.056C70.8435 60.3173 70.6089 60.52 70.3049 60.664C70.0062 60.808 69.6542 60.88 69.2489 60.88H68.0809V60.104H69.2089C69.4222 60.104 69.6089 60.0667 69.7689 59.992C69.9342 59.9173 70.0622 59.8107 70.1529 59.672C70.2435 59.528 70.2889 59.3573 70.2889 59.16C70.2889 58.9573 70.2435 58.7867 70.1529 58.648C70.0622 58.5093 69.9342 58.4027 69.7689 58.328C69.6089 58.2533 69.4222 58.216 69.2089 58.216H68.0809ZM42.6201 69.4H43.5641V75H42.6201V69.4ZM43.1801 70.232V69.4H44.3081C44.7134 69.4 45.0654 69.472 45.3641 69.616C45.6681 69.7547 45.9028 69.9547 46.0681 70.216C46.2334 70.472 46.3161 70.7787 46.3161 71.136C46.3161 71.4933 46.2334 71.8027 46.0681 72.064C45.9028 72.3253 45.6681 72.528 45.3641 72.672C45.0654 72.8107 44.7134 72.88 44.3081 72.88H43.1801V72.048H44.3081C44.6334 72.048 44.8948 71.9707 45.0921 71.816C45.2894 71.6613 45.3881 71.4347 45.3881 71.136C45.3881 70.8373 45.2894 70.6133 45.0921 70.464C44.8948 70.3093 44.6334 70.232 44.3081 70.232H43.1801ZM47.7546 73.56L47.9306 72.76H50.5306L50.7146 73.56H47.7546ZM49.2186 70.984L48.3386 73.04L48.3226 73.248L47.5466 75H46.4826L49.2186 69.088L51.9546 75H50.8906L50.1306 73.296L50.1066 73.064L49.2186 70.984ZM53.4598 72.2C53.4598 72.5947 53.5478 72.9413 53.7238 73.24C53.9052 73.5387 54.1398 73.7707 54.4278 73.936C54.7212 74.096 55.0385 74.176 55.3798 74.176C55.6465 74.176 55.8865 74.1413 56.0998 74.072C56.3132 74.0027 56.5052 73.9093 56.6758 73.792C56.8518 73.6693 57.0038 73.5333 57.1318 73.384V74.504C56.8972 74.696 56.6438 74.8427 56.3718 74.944C56.0998 75.0453 55.7585 75.096 55.3478 75.096C54.9372 75.096 54.5532 75.0267 54.1958 74.888C53.8438 74.7493 53.5372 74.5493 53.2758 74.288C53.0145 74.0267 52.8092 73.72 52.6598 73.368C52.5158 73.0107 52.4438 72.6213 52.4438 72.2C52.4438 71.7787 52.5158 71.392 52.6598 71.04C52.8092 70.6827 53.0145 70.3733 53.2758 70.112C53.5372 69.8507 53.8438 69.6507 54.1958 69.512C54.5532 69.3733 54.9372 69.304 55.3478 69.304C55.7585 69.304 56.0998 69.3547 56.3718 69.456C56.6438 69.5573 56.8972 69.704 57.1318 69.896V71.016C57.0038 70.8667 56.8518 70.7333 56.6758 70.616C56.5052 70.4933 56.3132 70.3973 56.0998 70.328C55.8865 70.2587 55.6465 70.224 55.3798 70.224C55.0385 70.224 54.7212 70.3067 54.4278 70.472C54.1398 70.632 53.9052 70.8613 53.7238 71.16C53.5478 71.4533 53.4598 71.8 53.4598 72.2ZM58.6951 69.4H59.6631V75H58.6951V69.4ZM61.7431 69.4H62.8791L60.5191 72.024L62.9991 75H61.8391L59.3751 72.048L61.7431 69.4ZM64.6322 75V74.168H67.4562V75H64.6322ZM64.6322 70.232V69.4H67.4562V70.232H64.6322ZM64.6322 72.408V71.592H67.2962V72.408H64.6322ZM64.0482 69.4H64.9762V75H64.0482V69.4ZM69.0185 69.4H69.9785V75H69.0185V69.4ZM70.8265 75H69.6025V74.112H70.8025C71.0799 74.112 71.3359 74.072 71.5705 73.992C71.8052 73.912 72.0079 73.792 72.1785 73.632C72.3545 73.472 72.4905 73.272 72.5865 73.032C72.6879 72.792 72.7385 72.5147 72.7385 72.2C72.7385 71.8853 72.6879 71.608 72.5865 71.368C72.4905 71.128 72.3545 70.928 72.1785 70.768C72.0079 70.608 71.8052 70.488 71.5705 70.408C71.3359 70.328 71.0799 70.288 70.8025 70.288H69.6025V69.4H70.8265C71.3972 69.4 71.8985 69.5173 72.3305 69.752C72.7625 69.9813 73.0985 70.3067 73.3385 70.728C73.5839 71.144 73.7065 71.6347 73.7065 72.2C73.7065 72.7653 73.5839 73.2587 73.3385 73.68C73.0985 74.096 72.7625 74.4213 72.3305 74.656C71.8985 74.8853 71.3972 75 70.8265 75Z" fill="#275259"/>
<line x1="58" y1="32.5" x2="319" y2="32.5" stroke="#BDBDBD" stroke-dasharray="4 4"/>
<circle cx="231.5" cy="31.5" r="17.5" fill="url(#paint0_linear_22_505)"/>
<circle cx="144.5" cy="31.5" r="17.5" fill="url(#paint1_linear_22_505)"/>
<circle cx="318.5" cy="31.5" r="17.5" fill="url(#paint2_linear_22_505)"/>
<circle cx="144.5" cy="31.5" r="14.5" fill="#AEA8A9"/>
<circle cx="231.5" cy="31.5" r="14.5" fill="#AEA8A9"/>
<path d="M227.629 31.0297C228.559 31.0343 229.452 31.3916 230.129 32.0295H232.838C232.975 32.0273 233.108 31.9819 233.218 31.8995L234.998 30.4998V27.5005H232.998V26.2507H235.897C235.997 26.1182 236.107 25.9945 236.227 25.8808C236.448 25.665 236.71 25.4951 236.997 25.3809C237.316 25.2567 237.655 25.1956 237.997 25.2009V27.5005H236.247V30.6598C236.248 30.7726 236.279 30.8832 236.337 30.9797L237.807 33.4292C238.386 33.475 238.928 33.7311 239.332 34.1491C239.735 34.5672 239.972 35.1183 239.997 35.6987C239.968 36.3344 239.689 36.9329 239.221 37.3637C238.753 37.7945 238.133 38.0226 237.497 37.9982C236.861 38.0226 236.242 37.7945 235.773 37.3637C235.305 36.9329 235.026 36.3344 234.998 35.6987H224V34.499C224.009 34.0324 224.11 33.5723 224.298 33.145C224.485 32.7178 224.756 32.3318 225.093 32.0094C225.43 31.687 225.828 31.4344 226.263 31.2663C226.699 31.0982 227.163 31.0177 227.629 31.0297ZM227.629 32.2794C227.327 32.2674 227.025 32.3154 226.741 32.4207C226.458 32.526 226.198 32.6865 225.977 32.8929C225.755 33.0993 225.577 33.3475 225.452 33.6232C225.328 33.8988 225.259 34.1965 225.25 34.499H229.999C229.99 34.1974 229.921 33.9006 229.797 33.6256C229.673 33.3506 229.496 33.1028 229.275 32.8966C229.055 32.6903 228.796 32.5296 228.514 32.4237C228.231 32.3178 227.931 32.2688 227.629 32.2794ZM237.497 36.7485C237.802 36.7735 238.104 36.6772 238.338 36.4806C238.572 36.2841 238.719 36.003 238.747 35.6987C238.707 35.4034 238.555 35.1348 238.322 34.9487C238.089 34.7625 237.794 34.6731 237.497 34.6989C237.2 34.6731 236.905 34.7625 236.672 34.9487C236.439 35.1348 236.287 35.4034 236.247 35.6987C236.275 36.003 236.422 36.2841 236.656 36.4806C236.89 36.6772 237.193 36.7735 237.497 36.7485ZM235.408 34.499C235.674 34.1261 236.042 33.838 236.467 33.6691L235.378 31.7995L233.998 32.8593C233.672 33.1039 233.276 33.2371 232.868 33.2392H230.999C231.166 33.6381 231.251 34.0665 231.248 34.499H235.408Z" fill="white"/>
<path d="M225.25 25.001H228.999C229.167 24.9943 229.335 25.0216 229.493 25.0814C229.65 25.1412 229.794 25.2322 229.915 25.3489C230.036 25.4656 230.133 25.6057 230.199 25.7606C230.265 25.9156 230.299 26.0823 230.299 26.2507V29.2501C230.299 29.4185 230.265 29.5852 230.199 29.7402C230.133 29.8952 230.036 30.0352 229.915 30.1519C229.794 30.2687 229.65 30.3597 229.493 30.4194C229.335 30.4792 229.167 30.5066 228.999 30.4998H225.2C224.877 30.4869 224.572 30.3496 224.348 30.1166C224.124 29.8836 224 29.5731 224 29.2501V26.2507C224 25.9193 224.132 25.6014 224.366 25.367C224.6 25.1327 224.918 25.001 225.25 25.001ZM225.25 29.2501H228.999V26.2507H225.2L225.25 29.2501ZM227.629 36.7485C227.933 36.7709 228.234 36.6737 228.467 36.4776C228.701 36.2815 228.848 36.002 228.879 35.6987H230.129C230.1 36.3344 229.821 36.9329 229.353 37.3637C228.885 37.7945 228.265 38.0226 227.629 37.9982C226.993 38.0226 226.374 37.7945 225.905 37.3637C225.437 36.9329 225.158 36.3344 225.13 35.6987H226.379C226.407 36.0031 226.554 36.2841 226.788 36.4807C227.022 36.6772 227.325 36.7735 227.629 36.7485Z" fill="white"/>
<circle cx="318.5" cy="31.5" r="14.5" fill="#AEA8A9"/>
<path d="M142.385 36C142.793 36 143.184 35.8379 143.472 35.5494C143.761 35.2609 143.923 34.8696 143.923 34.4615C143.923 34.0535 143.761 33.6622 143.472 33.3737C143.184 33.0852 142.793 32.9231 142.385 32.9231C141.977 32.9231 141.585 33.0852 141.297 33.3737C141.008 33.6622 140.846 34.0535 140.846 34.4615C140.846 34.8696 141.008 35.2609 141.297 35.5494C141.585 35.8379 141.977 36 142.385 36ZM150.077 36C150.485 36 150.876 35.8379 151.165 35.5494C151.453 35.2609 151.615 34.8696 151.615 34.4615C151.615 34.0535 151.453 33.6622 151.165 33.3737C150.876 33.0852 150.485 32.9231 150.077 32.9231C149.669 32.9231 149.278 33.0852 148.989 33.3737C148.701 33.6622 148.538 34.0535 148.538 34.4615C148.538 34.8696 148.701 35.2609 148.989 35.5494C149.278 35.8379 149.669 36 150.077 36Z" stroke="white" stroke-width="1.5" stroke-miterlimit="1.5" stroke-linecap="round" stroke-linejoin="round"/>
<path d="M143.962 34.4615H147.769V26.4615C147.769 26.3391 147.721 26.2217 147.634 26.1352C147.547 26.0486 147.43 26 147.308 26H137M140.577 34.4615H139C138.939 34.4615 138.879 34.4496 138.823 34.4264C138.767 34.4032 138.717 34.3692 138.674 34.3264C138.631 34.2835 138.597 34.2326 138.574 34.1766C138.55 34.1206 138.538 34.0606 138.538 34V30.2308" stroke="white" stroke-width="1.5" stroke-linecap="round"/>
<path d="M137.769 28.3077H140.846" stroke="white" stroke-width="1.5" stroke-linecap="round" stroke-linejoin="round"/>
<path d="M147.769 28.3077H152.085C152.174 28.3077 152.261 28.3336 152.336 28.3822C152.411 28.4308 152.47 28.5 152.506 28.5815L153.883 31.68C153.909 31.7388 153.923 31.8025 153.923 31.8669V34C153.923 34.0606 153.911 34.1206 153.888 34.1766C153.865 34.2326 153.831 34.2835 153.788 34.3263C153.745 34.3692 153.694 34.4032 153.638 34.4264C153.582 34.4496 153.522 34.4615 153.462 34.4615H152M147.769 34.4615H148.538" stroke="white" stroke-width="1.5" stroke-linecap="round"/>
<circle cx="57.5" cy="31.5" r="17.5" fill="url(#paint3_linear_22_505)"/>
<circle cx="57.5" cy="31.5" r="14.5" fill="#EA92AA"/>
<path d="M57.1111 37.6825V31.5175L51.7778 28.39V34.555L57.1111 37.6825ZM58.8889 37.6825L64.2222 34.555V28.39L58.8889 31.5175V37.6825ZM57.1111 39.7525L50.8889 36.13C50.6074 35.965 50.389 35.7475 50.2338 35.4775C50.0785 35.2075 50.0006 34.9075 50 34.5775V27.4225C50 27.0925 50.0779 26.7925 50.2338 26.5225C50.3896 26.2525 50.608 26.035 50.8889 25.87L57.1111 22.2475C57.3926 22.0825 57.6889 22 58 22C58.3111 22 58.6074 22.0825 58.8889 22.2475L65.1111 25.87C65.3926 26.035 65.6113 26.2525 65.7671 26.5225C65.923 26.7925 66.0006 27.0925 66 27.4225V34.5775C66 34.9075 65.9224 35.2075 65.7671 35.4775C65.6118 35.7475 65.3932 35.965 65.1111 36.13L58.8889 39.7525C58.6074 39.9175 58.3111 40 58 40C57.6889 40 57.3926 39.9175 57.1111 39.7525ZM61.5556 27.8725L63.2667 26.8825L58 23.8L56.2667 24.8125L61.5556 27.8725ZM58 29.965L59.7333 28.9525L54.4667 25.87L52.7333 26.8825L58 29.965Z" fill="white"/>
<path d="M314.2 31.4L317.8 34.4L322.6 28.4M318.4 39.8C317.297 39.8 316.205 39.5827 315.185 39.1606C314.166 38.7384 313.24 38.1197 312.46 37.3397C311.68 36.5597 311.062 35.6337 310.639 34.6145C310.217 33.5954 310 32.5031 310 31.4C310 30.2969 310.217 29.2046 310.639 28.1855C311.062 27.1663 311.68 26.2403 312.46 25.4603C313.24 24.6803 314.166 24.0616 315.185 23.6394C316.205 23.2173 317.297 23 318.4 23C320.628 23 322.764 23.885 324.34 25.4603C325.915 27.0356 326.8 29.1722 326.8 31.4C326.8 33.6278 325.915 35.7644 324.34 37.3397C322.764 38.915 320.628 39.8 318.4 39.8Z" stroke="white" stroke-width="1.5"/>
<defs>
<linearGradient id="paint0_linear_22_505" x1="231.5" y1="14" x2="231.5" y2="49" gradientUnits="userSpaceOnUse">
<stop stop-color="#2C292A" stop-opacity="0.35"/>
<stop offset="1" stop-opacity="0"/>
</linearGradient>
<linearGradient id="paint1_linear_22_505" x1="144.5" y1="14" x2="144.5" y2="49" gradientUnits="userSpaceOnUse">
<stop stop-color="#2C292A" stop-opacity="0.35"/>
<stop offset="1" stop-opacity="0"/>
</linearGradient>
<linearGradient id="paint2_linear_22_505" x1="318.5" y1="14" x2="318.5" y2="49" gradientUnits="userSpaceOnUse">
<stop stop-color="#2C292A" stop-opacity="0.35"/>
<stop offset="1" stop-opacity="0"/>
</linearGradient>
<linearGradient id="paint3_linear_22_505" x1="57.5" y1="14" x2="57.5" y2="49" gradientUnits="userSpaceOnUse">
<stop stop-color="#DF6389" stop-opacity="0.35"/>
<stop offset="1" stop-color="#DF6389" stop-opacity="0"/>
</linearGradient>
</defs>
</svg>
