<svg width="154" height="180" viewBox="0 0 154 180" fill="none" xmlns="http://www.w3.org/2000/svg">
<g clip-path="url(#clip0_57_130)">
<g clip-path="url(#clip1_57_130)">
<path d="M125.487 45.004H124.542V19.0319C124.542 15.0452 122.96 11.2217 120.145 8.40273C117.33 5.58371 113.512 4 109.53 4H54.5787C52.6074 3.99997 50.6553 4.38875 48.8341 5.14414C47.0128 5.89953 45.3579 7.00674 43.964 8.40256C42.57 9.79837 41.4643 11.4555 40.7098 13.2792C39.9554 15.1029 39.5671 17.0576 39.5671 19.0316V161.517C39.5671 165.503 41.1486 169.327 43.9638 172.146C46.779 174.965 50.5972 176.548 54.5785 176.548H109.53C113.511 176.548 117.329 174.965 120.144 172.146C122.959 169.327 124.541 165.503 124.541 161.517V63.4913H125.486L125.487 45.004Z" fill="#3F3D56" fill-opacity="0.71"/>
<path d="M121.463 18.025V162.523C121.462 165.546 120.263 168.444 118.129 170.582C115.995 172.72 113.1 173.921 110.081 173.922H54.0024C50.9827 173.922 48.0864 172.722 45.9507 170.584C43.815 168.446 42.6146 165.547 42.6137 162.523V18.025C42.6146 15.0013 43.8149 12.1017 45.9505 9.96409C48.0862 7.82644 50.9823 6.62577 54.0019 6.62616H60.8046C60.4706 7.4487 60.3435 8.34082 60.4344 9.22408C60.5253 10.1074 60.8315 10.9547 61.3261 11.6917C61.8206 12.4288 62.4884 13.0328 63.2707 13.4509C64.053 13.8689 64.9259 14.0882 65.8127 14.0893H97.7843C98.671 14.0882 99.5439 13.8689 100.326 13.4509C101.109 13.0328 101.776 12.4288 102.271 11.6917C102.765 10.9547 103.072 10.1074 103.163 9.22408C103.253 8.34082 103.126 7.4487 102.792 6.62616H110.079C113.098 6.62667 115.992 7.82749 118.127 9.96461C120.262 12.1017 121.461 15.0002 121.463 18.0228V18.025Z" fill="white"/>
<path d="M82.4123 72.8885C95.3426 72.8885 105.825 62.3922 105.825 49.4443C105.825 36.4964 95.3426 26 82.4123 26C69.482 26 59 36.4964 59 49.4443C59 62.3922 69.482 72.8885 82.4123 72.8885Z" fill="url(#paint0_linear_57_130)"/>
<path d="M107.562 101.258H57.7291C57.4844 101.257 57.2499 101.16 57.0769 100.987C56.9039 100.813 56.8066 100.579 56.8063 100.334V87.9555C56.8067 87.7106 56.904 87.4757 57.077 87.3025C57.2499 87.1293 57.4845 87.0318 57.7291 87.0315H107.562C107.806 87.0318 108.041 87.1293 108.214 87.3025C108.387 87.4757 108.484 87.7106 108.485 87.9555V100.334C108.484 100.579 108.387 100.814 108.214 100.987C108.041 101.16 107.806 101.257 107.562 101.258V101.258ZM57.7291 87.401C57.5823 87.4011 57.4415 87.4596 57.3377 87.5636C57.2339 87.6675 57.1755 87.8085 57.1753 87.9555V100.334C57.1755 100.481 57.2339 100.622 57.3377 100.726C57.4415 100.83 57.5823 100.888 57.7291 100.888H107.562C107.709 100.888 107.849 100.83 107.953 100.726C108.057 100.622 108.115 100.481 108.116 100.334V87.9555C108.115 87.8085 108.057 87.6675 107.953 87.5636C107.849 87.4596 107.709 87.4011 107.562 87.401H57.7291Z" fill="#E6E6E6"/>
<path d="M73.1403 91.4892C72.969 91.4892 72.8046 91.5574 72.6835 91.6787C72.5623 91.8 72.4943 91.9645 72.4943 92.1361C72.4943 92.3077 72.5623 92.4722 72.6835 92.5935C72.8046 92.7148 72.969 92.783 73.1403 92.783H103.593C103.765 92.7896 103.931 92.7277 104.057 92.6111C104.183 92.4945 104.257 92.3327 104.264 92.1612C104.27 91.9898 104.209 91.8227 104.092 91.6968C103.976 91.5709 103.814 91.4965 103.643 91.4899C103.633 91.4896 103.624 91.4894 103.614 91.4894L73.1403 91.4892Z" fill="#E6E6E6"/>
<path d="M73.1403 95.3698C72.969 95.3698 72.8046 95.438 72.6835 95.5593C72.5623 95.6806 72.4943 95.8452 72.4943 96.0167C72.4943 96.1883 72.5623 96.3528 72.6835 96.4742C72.8046 96.5955 72.969 96.6636 73.1403 96.6636H103.593C103.765 96.6702 103.931 96.6084 104.057 96.4918C104.183 96.3752 104.257 96.2133 104.264 96.0419C104.27 95.8704 104.209 95.7033 104.092 95.5774C103.976 95.4515 103.814 95.3771 103.643 95.3705C103.633 95.3702 103.624 95.37 103.614 95.3701L73.1403 95.3698Z" fill="#E6E6E6"/>
<path d="M107.562 121.889H57.7291C57.4844 121.889 57.2499 121.791 57.0769 121.618C56.9039 121.445 56.8066 121.21 56.8063 120.965V108.587C56.8067 108.342 56.904 108.107 57.077 107.934C57.2499 107.761 57.4845 107.663 57.7291 107.663H107.562C107.806 107.663 108.041 107.761 108.214 107.934C108.387 108.107 108.484 108.342 108.485 108.587V120.965C108.484 121.21 108.387 121.445 108.214 121.618C108.041 121.791 107.806 121.889 107.562 121.889ZM57.7291 108.033C57.5823 108.033 57.4415 108.091 57.3377 108.195C57.2339 108.299 57.1755 108.44 57.1753 108.587V120.965C57.1755 121.112 57.2339 121.253 57.3377 121.357C57.4415 121.461 57.5823 121.52 57.7291 121.52H107.562C107.709 121.52 107.849 121.461 107.953 121.357C108.057 121.253 108.115 121.112 108.116 120.965V108.587C108.115 108.44 108.057 108.299 107.953 108.195C107.849 108.091 107.709 108.033 107.562 108.033H57.7291Z" fill="#E6E6E6"/>
<path d="M73.1403 112.188C72.969 112.188 72.8046 112.256 72.6835 112.377C72.5623 112.499 72.4943 112.663 72.4943 112.835C72.4943 113.006 72.5623 113.171 72.6835 113.292C72.8046 113.413 72.969 113.482 73.1403 113.482H103.593C103.762 113.481 103.924 113.414 104.044 113.295C104.164 113.176 104.233 113.014 104.236 112.845C104.239 112.676 104.175 112.513 104.059 112.39C103.943 112.267 103.783 112.195 103.614 112.188H73.1403V112.188Z" fill="#E6E6E6"/>
<path d="M73.1403 116.069C72.969 116.069 72.8046 116.138 72.6835 116.259C72.5623 116.38 72.4943 116.545 72.4943 116.716C72.4943 116.888 72.5623 117.052 72.6835 117.174C72.8046 117.295 72.969 117.363 73.1403 117.363H103.593C103.762 117.362 103.924 117.295 104.044 117.176C104.164 117.057 104.233 116.896 104.236 116.727C104.239 116.558 104.175 116.394 104.059 116.271C103.943 116.149 103.783 116.076 103.614 116.07H73.1403V116.069Z" fill="#E6E6E6"/>
<path d="M107.562 142.588H57.7291C57.4844 142.588 57.2499 142.491 57.0769 142.317C56.9039 142.144 56.8066 141.909 56.8063 141.664V129.286C56.8067 129.041 56.904 128.806 57.077 128.633C57.2499 128.46 57.4845 128.363 57.7291 128.362H107.562C107.806 128.363 108.041 128.46 108.214 128.633C108.387 128.806 108.484 129.041 108.485 129.286V141.665C108.484 141.909 108.387 142.144 108.214 142.318C108.041 142.491 107.806 142.588 107.562 142.589V142.588ZM57.7291 128.732C57.5823 128.732 57.4415 128.79 57.3377 128.894C57.2339 128.998 57.1755 129.139 57.1753 129.286V141.665C57.1755 141.812 57.2339 141.953 57.3377 142.056C57.4415 142.16 57.5823 142.219 57.7291 142.219H107.562C107.709 142.219 107.849 142.16 107.953 142.056C108.057 141.953 108.115 141.812 108.116 141.665V129.286C108.115 129.139 108.057 128.998 107.953 128.894C107.849 128.79 107.709 128.732 107.562 128.732H57.7291Z" fill="#E6E6E6"/>
<path d="M73.1403 132.888C72.969 132.888 72.8046 132.956 72.6835 133.077C72.5623 133.198 72.4943 133.363 72.4943 133.535C72.4943 133.706 72.5623 133.871 72.6835 133.992C72.8046 134.113 72.969 134.181 73.1403 134.181H103.593C103.678 134.185 103.763 134.171 103.842 134.142C103.922 134.112 103.995 134.067 104.057 134.01C104.119 133.952 104.17 133.882 104.205 133.805C104.241 133.728 104.261 133.645 104.264 133.56C104.267 133.475 104.254 133.39 104.224 133.31C104.195 133.231 104.15 133.158 104.092 133.095C104.035 133.033 103.965 132.983 103.888 132.947C103.811 132.912 103.728 132.892 103.643 132.888C103.633 132.888 103.624 132.888 103.614 132.888L73.1403 132.888Z" fill="#E6E6E6"/>
<path d="M73.1403 136.769C72.969 136.769 72.8046 136.837 72.6835 136.959C72.5623 137.08 72.4943 137.244 72.4943 137.416C72.4943 137.588 72.5623 137.752 72.6835 137.873C72.8046 137.995 72.969 138.063 73.1403 138.063H103.593C103.678 138.066 103.763 138.053 103.842 138.023C103.922 137.994 103.995 137.949 104.057 137.891C104.119 137.833 104.17 137.764 104.205 137.687C104.241 137.609 104.261 137.526 104.264 137.441C104.267 137.356 104.254 137.271 104.224 137.192C104.195 137.112 104.15 137.039 104.092 136.977C104.035 136.914 103.965 136.864 103.888 136.828C103.811 136.793 103.728 136.773 103.643 136.77C103.633 136.769 103.624 136.769 103.614 136.769H73.1403L73.1403 136.769Z" fill="#E6E6E6"/>
<path d="M145.947 167.103C145.182 167.372 144.36 167.44 143.562 167.299C142.763 167.158 142.014 166.814 141.387 166.299C139.79 164.957 139.29 162.745 138.882 160.698L137.677 154.641L140.2 156.381C142.014 157.632 143.869 158.923 145.126 160.735C146.382 162.547 146.93 165.02 145.921 166.981" fill="url(#paint1_linear_57_130)"/>
<path d="M145.557 174.857C145.875 172.54 146.201 170.194 145.978 167.853C145.781 165.773 145.147 163.742 143.857 162.077C143.173 161.195 142.34 160.439 141.396 159.844C141.15 159.688 140.923 160.079 141.168 160.233C142.801 161.267 144.065 162.794 144.776 164.593C145.561 166.594 145.688 168.775 145.552 170.9C145.47 172.185 145.296 173.462 145.122 174.737C145.108 174.794 145.117 174.855 145.146 174.907C145.175 174.958 145.223 174.997 145.279 175.015C145.337 175.03 145.398 175.022 145.45 174.993C145.502 174.963 145.54 174.914 145.557 174.857H145.557Z" fill="url(#paint2_linear_57_130)"/>
<path d="M143.272 171.14C142.943 171.639 142.492 172.045 141.962 172.32C141.432 172.594 140.84 172.726 140.243 172.705C138.71 172.632 137.432 171.561 136.281 170.544L132.879 167.535L135.131 167.427C136.75 167.349 138.412 167.277 139.956 167.777C141.499 168.277 142.921 169.481 143.203 171.079" fill="url(#paint3_linear_57_130)"/>
<path d="M146.454 176.188C144.927 173.48 143.153 170.47 139.985 169.507C139.104 169.241 138.18 169.145 137.263 169.226C136.974 169.25 137.047 169.697 137.336 169.672C138.873 169.544 140.406 169.951 141.679 170.823C142.903 171.657 143.857 172.818 144.664 174.048C145.158 174.801 145.601 175.588 146.043 176.372C146.184 176.623 146.598 176.442 146.454 176.188Z" fill="url(#paint4_linear_57_130)"/>
<path d="M63.946 97.9496C66.0866 97.9496 67.8219 96.212 67.8219 94.0685C67.8219 91.925 66.0866 90.1874 63.946 90.1874C61.8055 90.1874 60.0702 91.925 60.0702 94.0685C60.0702 96.212 61.8055 97.9496 63.946 97.9496Z" fill="url(#paint5_linear_57_130)"/>
<path d="M62.0906 93.3436C62.046 93.3436 62.0098 93.6332 62.0098 93.9903C62.0098 94.3475 62.046 94.6374 62.0906 94.6374H65.9017C65.9463 94.6432 65.9831 94.3584 65.9838 94.0013C66.0086 93.7789 65.9814 93.5538 65.9043 93.3438H62.0906V93.3436Z" fill="#E6E6E6"/>
<path d="M63.946 118.657C66.0866 118.657 67.8219 116.92 67.8219 114.776C67.8219 112.633 66.0866 110.895 63.946 110.895C61.8055 110.895 60.0702 112.633 60.0702 114.776C60.0702 116.92 61.8055 118.657 63.946 118.657Z" fill="url(#paint6_linear_57_130)"/>
<path d="M62.0906 114.051C62.046 114.051 62.0098 114.341 62.0098 114.698C62.0098 115.055 62.046 115.345 62.0906 115.345H65.9017C65.9463 115.351 65.9831 115.066 65.9838 114.709C66.0086 114.487 65.9814 114.261 65.9043 114.051L62.0906 114.051Z" fill="#E6E6E6"/>
<path d="M63.946 139.356C66.0866 139.356 67.8219 137.619 67.8219 135.475C67.8219 133.332 66.0866 131.594 63.946 131.594C61.8055 131.594 60.0702 133.332 60.0702 135.475C60.0702 137.619 61.8055 139.356 63.946 139.356Z" fill="url(#paint7_linear_57_130)"/>
<path d="M62.0906 134.75C62.046 134.75 62.0098 135.04 62.0098 135.397C62.0098 135.754 62.046 136.044 62.0906 136.044H65.9017C65.9463 136.05 65.9831 135.765 65.9838 135.408C66.0086 135.186 65.9814 134.961 65.9043 134.751L62.0906 134.75Z" fill="#E6E6E6"/>
<path d="M76.9704 43.15L75.5989 44.5234L87.0853 56.0255L88.4568 54.6521L76.9704 43.15Z" fill="white"/>
<path d="M88.4568 44.5234L87.0853 43.15L75.5989 54.6521L76.9704 56.0255L88.4568 44.5234Z" fill="white"/>
<path d="M5 170.281L8.73699 171.166L14 157.471L8.48452 156.166L5 170.281Z" fill="#D7ABB1"/>
<path d="M14.8435 176.166L14.8686 176.07C15.162 174.941 14.9596 173.751 14.3058 172.761C13.652 171.77 12.6002 171.06 11.3811 170.786L4.13698 169.166L3 173.517L14.8435 176.166Z" fill="#2F2E41"/>
<path d="M21.0007 172.166L25.066 172.165L27 158.166L21 158.166L21.0007 172.166Z" fill="#D7ABB1"/>
<path d="M20.0002 176.166L32 176.165V176.055C32 174.758 31.509 173.515 30.635 172.598C29.7611 171.681 28.5758 171.166 27.3399 171.166H27.3397L20 171.166L20.0002 176.166Z" fill="#2F2E41"/>
<path d="M27.2251 166.411L31 125.5C26 131 20.5 124 15.3733 124.01C15.3733 124.01 17.1232 122.5 15.3116 124C13.5 125.5 10 126 10 126L12.3298 141.27L4.99999 164.135L11.3289 165.61L18.6704 144.404L20.3504 137.956L21.2115 146.335L20.5723 167L27.2251 166.411Z" fill="url(#paint8_linear_57_130)"/>
<path d="M30.9585 125.773L31 125.72L25.5863 85.0661L25.5792 85.0129L25.5411 84.9748C25.4613 84.8952 23.5645 83.0258 21.6135 83.0258C21.3314 83.0258 21.0632 83.0187 20.806 83.0122C19.313 82.9735 18.1337 82.9425 16.7321 84.3406C15.304 85.7647 10.6447 90.9652 10.6447 98.0877C10.6447 104.982 10.0153 126.406 10.0089 126.621L10 126.924L10.2544 126.759C10.3172 126.719 16.584 122.739 21.8397 126.438C23.4822 127.595 24.9577 128 26.2193 128C29.1557 128 30.9335 125.805 30.9585 125.773Z" fill="#DE6389"/>
<path d="M19.2022 79.8237C15.5561 77.8292 14.2162 73.2547 16.2093 69.6062C18.2024 65.9577 22.7739 64.6168 26.4201 66.6113C30.0662 68.6057 31.4062 73.1802 29.413 76.8287C27.4199 80.4772 22.8484 81.8181 19.2022 79.8237Z" fill="#D7ABB1"/>
<path d="M37.9466 131.589C37.5694 131.379 37.2414 131.088 36.9858 130.735C36.7301 130.383 36.5529 129.979 36.4668 129.551C36.3807 129.122 36.3877 128.68 36.4873 128.256C36.5869 127.832 36.7766 127.436 37.0432 127.096L31.4611 118.097L36.8741 118.228L41.3451 126.754C41.8792 127.251 42.2167 127.93 42.2938 128.662C42.3708 129.394 42.1819 130.127 41.763 130.723C41.3441 131.319 40.7242 131.736 40.0208 131.896C39.3174 132.055 38.5794 131.946 37.9466 131.589Z" fill="#D7ABB1"/>
<path d="M40.1367 123.805L38.3955 121.098C38.47 121.035 38.5271 120.953 38.561 120.86C39.48 118.46 29.3519 101.083 28.6777 99.9309C28.6581 99.2544 28.4301 92.0879 27.5147 89.7928C26.437 87.0909 24.8623 85.9858 22.2491 86.0973C19.3685 86.229 19.1758 90.3341 19.1743 90.3757L20.6466 100.646L25.6049 112.001L35.2965 126.64L40.1367 123.805Z" fill="#DE6389"/>
<path d="M21.6019 75.9755C22.5168 76.0876 23.2069 75.2064 23.527 74.3918C23.8471 73.5772 24.091 72.6288 24.8864 72.1888C25.9732 71.5877 27.3636 72.3107 28.6064 72.1124C30.0098 71.8884 30.9223 70.4882 30.9939 69.1498C31.0654 67.8115 30.4996 66.5243 29.9445 65.2903L29.7507 66.8238C29.7766 66.3041 29.6604 65.7868 29.4133 65.3214C29.1661 64.856 28.7962 64.4581 28.339 64.1657L28.5888 66.4159C28.4322 65.1553 26.9895 64.1785 25.6702 64.4397L25.7095 65.7805C24.0885 65.599 22.4534 65.4173 20.8276 65.5555C19.2018 65.6938 17.5646 66.178 16.3324 67.186C14.4892 68.6937 13.8161 71.1763 14.0421 73.4652C14.2681 75.754 15.2717 77.9042 16.3178 79.9813C16.581 80.5039 16.945 81.0936 17.5553 81.1601C18.1036 81.22 18.6054 80.7885 18.7758 80.2942C18.9463 79.7999 18.8631 79.263 18.761 78.7523C18.6068 77.9808 18.4124 77.1922 18.5574 76.4192C18.7024 75.6461 19.2932 74.8822 20.121 74.7875C20.9488 74.6927 21.7958 75.5835 21.3978 76.2733L21.6019 75.9755Z" fill="#2F2E41"/>
<path d="M153.598 177H0.401998C0.17984 177 0 176.776 0 176.5C0 176.224 0.180047 176 0.401998 176H153.598C153.82 176 154 176.224 154 176.5C154 176.776 153.82 177 153.598 177Z" fill="white"/>
</g>
<path d="M75.2028 79.03V78.5H76.7678V79.03H75.2028ZM75.2028 80.42V79.905H76.7178V80.42H75.2028ZM74.8378 78.5H75.4178V82H74.8378V78.5ZM77.7636 81.1L77.8736 80.6H79.4986L79.6136 81.1H77.7636ZM78.6786 79.49L78.1286 80.775L78.1186 80.905L77.6336 82H76.9686L78.6786 78.305L80.3886 82H79.7236L79.2486 80.935L79.2336 80.79L78.6786 79.49ZM81.0458 78.5H81.6408V82H81.0458V78.5ZM82.6727 78.5H83.2627V81.47H84.6527V82H82.6727V78.5ZM85.6949 82V81.48H87.4599V82H85.6949ZM85.6949 79.02V78.5H87.4599V79.02H85.6949ZM85.6949 80.38V79.87H87.3599V80.38H85.6949ZM85.3299 78.5H85.9099V82H85.3299V78.5ZM88.4364 78.5H89.0364V82H88.4364V78.5ZM89.5664 82H88.8014V81.445H89.5514C89.7247 81.445 89.8847 81.42 90.0314 81.37C90.1781 81.32 90.3047 81.245 90.4114 81.145C90.5214 81.045 90.6064 80.92 90.6664 80.77C90.7297 80.62 90.7614 80.4467 90.7614 80.25C90.7614 80.0533 90.7297 79.88 90.6664 79.73C90.6064 79.58 90.5214 79.455 90.4114 79.355C90.3047 79.255 90.1781 79.18 90.0314 79.13C89.8847 79.08 89.7247 79.055 89.5514 79.055H88.8014V78.5H89.5664C89.9231 78.5 90.2364 78.5733 90.5064 78.72C90.7764 78.8633 90.9864 79.0667 91.1364 79.33C91.2897 79.59 91.3664 79.8967 91.3664 80.25C91.3664 80.6033 91.2897 80.9117 91.1364 81.175C90.9864 81.435 90.7764 81.6383 90.5064 81.785C90.2364 81.9283 89.9231 82 89.5664 82Z" fill="#275259"/>
</g>
<defs>
<linearGradient id="paint0_linear_57_130" x1="106.137" y1="49.2221" x2="58.8175" y2="49.2221" gradientUnits="userSpaceOnUse">
<stop stop-color="#DE6389"/>
<stop offset="1" stop-color="#EA8FA9" stop-opacity="0.8"/>
</linearGradient>
<linearGradient id="paint1_linear_57_130" x1="146.503" y1="160.946" x2="137.643" y2="160.946" gradientUnits="userSpaceOnUse">
<stop stop-color="#DE6389"/>
<stop offset="1" stop-color="#EA8FA9" stop-opacity="0.8"/>
</linearGradient>
<linearGradient id="paint2_linear_57_130" x1="141.235" y1="159.808" x2="146.052" y2="159.808" gradientUnits="userSpaceOnUse">
<stop stop-color="#38909E"/>
<stop offset="1" stop-color="#56BBCB"/>
</linearGradient>
<linearGradient id="paint3_linear_57_130" x1="143.341" y1="170.014" x2="132.838" y2="170.014" gradientUnits="userSpaceOnUse">
<stop stop-color="#DE6389"/>
<stop offset="1" stop-color="#EA8FA9" stop-opacity="0.8"/>
</linearGradient>
<linearGradient id="paint4_linear_57_130" x1="137.404" y1="169.198" x2="146.484" y2="169.198" gradientUnits="userSpaceOnUse">
<stop stop-color="#38909E"/>
<stop offset="1" stop-color="#56BBCB"/>
</linearGradient>
<linearGradient id="paint5_linear_57_130" x1="60.3375" y1="90.1874" x2="67.8219" y2="90.1874" gradientUnits="userSpaceOnUse">
<stop stop-color="#38909E"/>
<stop offset="1" stop-color="#56BBCB"/>
</linearGradient>
<linearGradient id="paint6_linear_57_130" x1="60.3375" y1="110.895" x2="67.8219" y2="110.895" gradientUnits="userSpaceOnUse">
<stop stop-color="#38909E"/>
<stop offset="1" stop-color="#56BBCB"/>
</linearGradient>
<linearGradient id="paint7_linear_57_130" x1="60.3375" y1="131.594" x2="67.8219" y2="131.594" gradientUnits="userSpaceOnUse">
<stop stop-color="#38909E"/>
<stop offset="1" stop-color="#56BBCB"/>
</linearGradient>
<linearGradient id="paint8_linear_57_130" x1="19.9905" y1="151.752" x2="20.8352" y2="126.587" gradientUnits="userSpaceOnUse">
<stop stop-color="#38909E"/>
<stop offset="1" stop-color="#56BBCB" stop-opacity="0.4"/>
</linearGradient>
<clipPath id="clip0_57_130">
<rect width="154" height="180" fill="white"/>
</clipPath>
<clipPath id="clip1_57_130">
<rect width="180" height="173" fill="white" transform="translate(-26 4)"/>
</clipPath>
</defs>
</svg>
