<svg width="154" height="180" viewBox="0 0 154 180" fill="none" xmlns="http://www.w3.org/2000/svg">
<path d="M119.92 48.004H118.975V22.0319C118.975 18.0452 117.393 14.2217 114.578 11.4027C111.763 8.58371 107.944 7 103.963 7H49.0116C47.0403 6.99997 45.0883 7.38875 43.267 8.14414C41.4457 8.89953 39.7909 10.0067 38.3969 11.4026C37.003 12.7984 35.8972 14.4555 35.1428 16.2792C34.3883 18.1029 34 20.0576 34 22.0316V164.517C34 168.503 35.5816 172.327 38.3967 175.146C41.2119 177.965 45.0301 179.548 49.0114 179.548H103.962C107.944 179.548 111.762 177.965 114.577 175.146C117.392 172.327 118.974 168.503 118.974 164.517V66.4913H119.919L119.92 48.004Z" fill="#3F3D56" fill-opacity="0.71"/>
<path d="M115.895 21.025V165.523C115.895 168.546 114.696 171.444 112.562 173.582C110.427 175.72 107.533 176.921 104.514 176.922H48.4353C45.4156 176.922 42.5194 175.722 40.3836 173.584C38.2479 171.446 37.0475 168.547 37.0466 165.523V21.025C37.0475 18.0013 38.2478 15.1017 40.3835 12.9641C42.5191 10.8264 45.4152 9.62577 48.4348 9.62616H55.2375C54.9035 10.4487 54.7764 11.3408 54.8673 12.2241C54.9582 13.1074 55.2644 13.9547 55.759 14.6917C56.2536 15.4288 56.9213 16.0328 57.7037 16.4509C58.486 16.8689 59.3589 17.0882 60.2456 17.0893H92.2172C93.1039 17.0882 93.9768 16.8689 94.7591 16.4509C95.5414 16.0328 96.2092 15.4288 96.7038 14.6917C97.1983 13.9547 97.5046 13.1074 97.5955 12.2241C97.6864 11.3408 97.5593 10.4487 97.2253 9.62616H104.512C107.531 9.62667 110.425 10.8275 112.56 12.9646C114.695 15.1017 115.894 18.0002 115.895 21.0228V21.025Z" fill="white"/>
<path d="M76.8452 75.8885C89.7755 75.8885 100.258 65.3922 100.258 52.4443C100.258 39.4964 89.7755 29 76.8452 29C63.915 29 53.4329 39.4964 53.4329 52.4443C53.4329 65.3922 63.915 75.8885 76.8452 75.8885Z" fill="url(#paint0_linear_57_130)"/>
<path d="M101.995 104.258H52.162C51.9174 104.257 51.6828 104.16 51.5098 103.987C51.3368 103.813 51.2395 103.579 51.2393 103.334V90.9555C51.2396 90.7106 51.3369 90.4757 51.5099 90.3025C51.6829 90.1293 51.9174 90.0318 52.162 90.0315H101.995C102.239 90.0318 102.474 90.1293 102.647 90.3025C102.82 90.4757 102.917 90.7106 102.918 90.9555V103.334C102.917 103.579 102.82 103.814 102.647 103.987C102.474 104.16 102.239 104.257 101.995 104.258V104.258ZM52.162 90.401C52.0152 90.4011 51.8744 90.4596 51.7706 90.5636C51.6668 90.6675 51.6084 90.8085 51.6083 90.9555V103.334C51.6084 103.481 51.6668 103.622 51.7706 103.726C51.8744 103.83 52.0152 103.888 52.162 103.888H101.995C102.142 103.888 102.282 103.83 102.386 103.726C102.49 103.622 102.548 103.481 102.548 103.334V90.9555C102.548 90.8085 102.49 90.6675 102.386 90.5636C102.282 90.4596 102.142 90.4011 101.995 90.401H52.162Z" fill="#E6E6E6"/>
<path d="M67.5732 94.4892C67.4019 94.4892 67.2376 94.5574 67.1164 94.6787C66.9953 94.8 66.9272 94.9645 66.9272 95.1361C66.9272 95.3077 66.9953 95.4722 67.1164 95.5935C67.2376 95.7148 67.4019 95.783 67.5732 95.783H98.0263C98.1975 95.7896 98.3644 95.7277 98.4901 95.6111C98.6158 95.4945 98.6902 95.3327 98.6967 95.1612C98.7033 94.9898 98.6415 94.8227 98.5251 94.6968C98.4086 94.5709 98.247 94.4965 98.0758 94.4899C98.0663 94.4896 98.0569 94.4894 98.0474 94.4894L67.5732 94.4892Z" fill="#E6E6E6"/>
<path d="M67.5732 98.3698C67.4019 98.3698 67.2376 98.438 67.1164 98.5593C66.9953 98.6806 66.9272 98.8452 66.9272 99.0167C66.9272 99.1883 66.9953 99.3528 67.1164 99.4742C67.2376 99.5955 67.4019 99.6636 67.5732 99.6636H98.0263C98.1975 99.6702 98.3644 99.6084 98.4901 99.4918C98.6158 99.3752 98.6902 99.2133 98.6967 99.0419C98.7033 98.8704 98.6415 98.7033 98.5251 98.5774C98.4086 98.4515 98.247 98.3771 98.0758 98.3705C98.0663 98.3702 98.0569 98.37 98.0474 98.3701L67.5732 98.3698Z" fill="#E6E6E6"/>
<path d="M101.995 124.889H52.162C51.9174 124.889 51.6828 124.791 51.5098 124.618C51.3368 124.445 51.2395 124.21 51.2393 123.965V111.587C51.2396 111.342 51.3369 111.107 51.5099 110.934C51.6829 110.761 51.9174 110.663 52.162 110.663H101.995C102.239 110.663 102.474 110.761 102.647 110.934C102.82 111.107 102.917 111.342 102.918 111.587V123.965C102.917 124.21 102.82 124.445 102.647 124.618C102.474 124.791 102.239 124.889 101.995 124.889ZM52.162 111.033C52.0152 111.033 51.8744 111.091 51.7706 111.195C51.6668 111.299 51.6084 111.44 51.6083 111.587V123.965C51.6084 124.112 51.6668 124.253 51.7706 124.357C51.8744 124.461 52.0152 124.52 52.162 124.52H101.995C102.142 124.52 102.282 124.461 102.386 124.357C102.49 124.253 102.548 124.112 102.548 123.965V111.587C102.548 111.44 102.49 111.299 102.386 111.195C102.282 111.091 102.142 111.033 101.995 111.033H52.162Z" fill="#E6E6E6"/>
<path d="M67.5732 115.188C67.4019 115.188 67.2376 115.256 67.1164 115.377C66.9953 115.499 66.9272 115.663 66.9272 115.835C66.9272 116.006 66.9953 116.171 67.1164 116.292C67.2376 116.413 67.4019 116.482 67.5732 116.482H98.0263C98.1952 116.481 98.357 116.414 98.4771 116.295C98.5972 116.176 98.6659 116.014 98.6687 115.845C98.6714 115.676 98.608 115.513 98.4918 115.39C98.3757 115.267 98.2162 115.195 98.0474 115.188H67.5732V115.188Z" fill="#E6E6E6"/>
<path d="M67.5732 119.069C67.4019 119.069 67.2376 119.138 67.1164 119.259C66.9953 119.38 66.9272 119.545 66.9272 119.716C66.9272 119.888 66.9953 120.052 67.1164 120.174C67.2376 120.295 67.4019 120.363 67.5732 120.363H98.0263C98.1952 120.362 98.357 120.295 98.4771 120.176C98.5972 120.057 98.6659 119.896 98.6687 119.727C98.6714 119.558 98.608 119.394 98.4918 119.271C98.3757 119.149 98.2162 119.076 98.0474 119.07H67.5732V119.069Z" fill="#E6E6E6"/>
<path d="M101.995 145.588H52.162C51.9174 145.588 51.6828 145.491 51.5098 145.317C51.3368 145.144 51.2395 144.909 51.2393 144.664V132.286C51.2396 132.041 51.3369 131.806 51.5099 131.633C51.6829 131.46 51.9174 131.363 52.162 131.362H101.995C102.239 131.363 102.474 131.46 102.647 131.633C102.82 131.806 102.917 132.041 102.918 132.286V144.665C102.917 144.909 102.82 145.144 102.647 145.318C102.474 145.491 102.239 145.588 101.995 145.589V145.588ZM52.162 131.732C52.0152 131.732 51.8744 131.79 51.7706 131.894C51.6668 131.998 51.6084 132.139 51.6083 132.286V144.665C51.6084 144.812 51.6668 144.953 51.7706 145.056C51.8744 145.16 52.0152 145.219 52.162 145.219H101.995C102.142 145.219 102.282 145.16 102.386 145.056C102.49 144.953 102.548 144.812 102.548 144.665V132.286C102.548 132.139 102.49 131.998 102.386 131.894C102.282 131.79 102.142 131.732 101.995 131.732H52.162Z" fill="#E6E6E6"/>
<path d="M67.5732 135.888C67.4019 135.888 67.2376 135.956 67.1164 136.077C66.9953 136.198 66.9272 136.363 66.9272 136.535C66.9272 136.706 66.9953 136.871 67.1164 136.992C67.2376 137.113 67.4019 137.181 67.5732 137.181H98.0263C98.1111 137.185 98.1957 137.171 98.2753 137.142C98.3548 137.112 98.4279 137.067 98.4901 137.01C98.5524 136.952 98.6026 136.882 98.6381 136.805C98.6735 136.728 98.6935 136.645 98.6967 136.56C98.7 136.475 98.6865 136.39 98.657 136.31C98.6276 136.231 98.5827 136.158 98.5251 136.095C98.4674 136.033 98.3981 135.983 98.321 135.947C98.2439 135.912 98.1606 135.892 98.0758 135.888C98.0663 135.888 98.0569 135.888 98.0474 135.888L67.5732 135.888Z" fill="#E6E6E6"/>
<path d="M67.5732 139.769C67.4019 139.769 67.2376 139.837 67.1164 139.959C66.9953 140.08 66.9272 140.244 66.9272 140.416C66.9272 140.588 66.9953 140.752 67.1164 140.873C67.2376 140.995 67.4019 141.063 67.5732 141.063H98.0263C98.1111 141.066 98.1957 141.053 98.2753 141.023C98.3548 140.994 98.4279 140.949 98.4901 140.891C98.5524 140.833 98.6026 140.764 98.6381 140.687C98.6735 140.609 98.6935 140.526 98.6967 140.441C98.7 140.356 98.6865 140.271 98.657 140.192C98.6276 140.112 98.5827 140.039 98.5251 139.977C98.4674 139.914 98.3981 139.864 98.321 139.828C98.2439 139.793 98.1606 139.773 98.0758 139.77C98.0663 139.769 98.0569 139.769 98.0474 139.769H67.5732L67.5732 139.769Z" fill="#E6E6E6"/>
<path d="M58.379 100.95C60.5195 100.95 62.2548 99.212 62.2548 97.0685C62.2548 94.925 60.5195 93.1874 58.379 93.1874C56.2384 93.1874 54.5031 94.925 54.5031 97.0685C54.5031 99.212 56.2384 100.95 58.379 100.95Z" fill="url(#paint1_linear_57_130)"/>
<path d="M56.5235 96.3436C56.4789 96.3436 56.4427 96.6332 56.4427 96.9903C56.4427 97.3475 56.4789 97.6374 56.5235 97.6374H60.3346C60.3792 97.6432 60.416 97.3584 60.4168 97.0013C60.4415 96.7789 60.4143 96.5538 60.3372 96.3438H56.5235V96.3436Z" fill="#E6E6E6"/>
<path d="M58.379 121.657C60.5195 121.657 62.2548 119.92 62.2548 117.776C62.2548 115.633 60.5195 113.895 58.379 113.895C56.2384 113.895 54.5031 115.633 54.5031 117.776C54.5031 119.92 56.2384 121.657 58.379 121.657Z" fill="url(#paint2_linear_57_130)"/>
<path d="M56.5235 117.051C56.4789 117.051 56.4427 117.341 56.4427 117.698C56.4427 118.055 56.4789 118.345 56.5235 118.345H60.3346C60.3792 118.351 60.416 118.066 60.4168 117.709C60.4415 117.487 60.4143 117.261 60.3372 117.051L56.5235 117.051Z" fill="#E6E6E6"/>
<path d="M58.379 142.356C60.5195 142.356 62.2548 140.619 62.2548 138.475C62.2548 136.332 60.5195 134.594 58.379 134.594C56.2384 134.594 54.5031 136.332 54.5031 138.475C54.5031 140.619 56.2384 142.356 58.379 142.356Z" fill="url(#paint3_linear_57_130)"/>
<path d="M56.5235 137.75C56.4789 137.75 56.4427 138.04 56.4427 138.397C56.4427 138.754 56.4789 139.044 56.5235 139.044H60.3346C60.3792 139.05 60.416 138.765 60.4168 138.408C60.4415 138.186 60.4143 137.961 60.3372 137.751L56.5235 137.75Z" fill="#E6E6E6"/>
<path d="M71.4033 46.15L70.0318 47.5234L81.5182 59.0255L82.8897 57.6521L71.4033 46.15Z" fill="white"/>
<path d="M82.8897 47.5234L81.5182 46.15L70.0318 57.6521L71.4033 59.0255L82.8897 47.5234Z" fill="white"/>
<path d="M69.6357 82.03V81.5H71.2007V82.03H69.6357ZM69.6357 83.42V82.905H71.1507V83.42H69.6357ZM69.2707 81.5H69.8507V85H69.2707V81.5ZM72.1965 84.1L72.3065 83.6H73.9315L74.0465 84.1H72.1965ZM73.1115 82.49L72.5615 83.775L72.5515 83.905L72.0665 85H71.4015L73.1115 81.305L74.8215 85H74.1565L73.6815 83.935L73.6665 83.79L73.1115 82.49ZM75.4787 81.5H76.0737V85H75.4787V81.5ZM77.1056 81.5H77.6956V84.47H79.0856V85H77.1056V81.5ZM80.1279 85V84.48H81.8929V85H80.1279ZM80.1279 82.02V81.5H81.8929V82.02H80.1279ZM80.1279 83.38V82.87H81.7929V83.38H80.1279ZM79.7629 81.5H80.3429V85H79.7629V81.5ZM82.8693 81.5H83.4693V85H82.8693V81.5ZM83.9993 85H83.2343V84.445H83.9843C84.1576 84.445 84.3176 84.42 84.4643 84.37C84.611 84.32 84.7376 84.245 84.8443 84.145C84.9543 84.045 85.0393 83.92 85.0993 83.77C85.1626 83.62 85.1943 83.4467 85.1943 83.25C85.1943 83.0533 85.1626 82.88 85.0993 82.73C85.0393 82.58 84.9543 82.455 84.8443 82.355C84.7376 82.255 84.611 82.18 84.4643 82.13C84.3176 82.08 84.1576 82.055 83.9843 82.055H83.2343V81.5H83.9993C84.356 81.5 84.6693 81.5733 84.9393 81.72C85.2093 81.8633 85.4193 82.0667 85.5693 82.33C85.7226 82.59 85.7993 82.8967 85.7993 83.25C85.7993 83.6033 85.7226 83.9117 85.5693 84.175C85.4193 84.435 85.2093 84.6383 84.9393 84.785C84.6693 84.9283 84.356 85 83.9993 85Z" fill="#275259"/>
<defs>
<linearGradient id="paint0_linear_57_130" x1="100.57" y1="52.2221" x2="53.2504" y2="52.2221" gradientUnits="userSpaceOnUse">
<stop stop-color="#DE6389"/>
<stop offset="1" stop-color="#EA8FA9" stop-opacity="0.8"/>
</linearGradient>
<linearGradient id="paint1_linear_57_130" x1="54.7704" y1="93.1874" x2="62.2548" y2="93.1874" gradientUnits="userSpaceOnUse">
<stop stop-color="#38909E"/>
<stop offset="1" stop-color="#56BBCB"/>
</linearGradient>
<linearGradient id="paint2_linear_57_130" x1="54.7704" y1="113.895" x2="62.2548" y2="113.895" gradientUnits="userSpaceOnUse">
<stop stop-color="#38909E"/>
<stop offset="1" stop-color="#56BBCB"/>
</linearGradient>
<linearGradient id="paint3_linear_57_130" x1="54.7704" y1="134.594" x2="62.2548" y2="134.594" gradientUnits="userSpaceOnUse">
<stop stop-color="#38909E"/>
<stop offset="1" stop-color="#56BBCB"/>
</linearGradient>
</defs>
</svg>
