<svg width="154" height="180" viewBox="0 0 154 180" fill="none" xmlns="http://www.w3.org/2000/svg">
<path d="M119.92 48.004H118.975V22.0319C118.975 18.0452 117.393 14.2217 114.578 11.4027C111.763 8.58371 107.944 7 103.963 7H49.0116C47.0403 6.99997 45.0883 7.38875 43.267 8.14414C41.4457 8.89953 39.7909 10.0067 38.3969 11.4026C37.003 12.7984 35.8972 14.4555 35.1428 16.2792C34.3883 18.1029 34 20.0576 34 22.0316V164.517C34 168.503 35.5816 172.327 38.3967 175.146C41.2119 177.965 45.0301 179.548 49.0114 179.548H103.962C107.944 179.548 111.762 177.965 114.577 175.146C117.392 172.327 118.974 168.503 118.974 164.517V66.4913H119.919L119.92 48.004Z" fill="#3F3D56" fill-opacity="0.71"/>
<path d="M115.895 21.025V165.523C115.895 168.546 114.696 171.444 112.562 173.582C110.427 175.72 107.533 176.921 104.514 176.922H48.4353C45.4156 176.922 42.5194 175.722 40.3836 173.584C38.2479 171.446 37.0475 168.547 37.0466 165.523V21.025C37.0475 18.0013 38.2478 15.1017 40.3835 12.9641C42.5191 10.8264 45.4152 9.62577 48.4348 9.62616H55.2375C54.9035 10.4487 54.7764 11.3408 54.8673 12.2241C54.9582 13.1074 55.2644 13.9547 55.759 14.6917C56.2536 15.4288 56.9213 16.0328 57.7037 16.4509C58.486 16.8689 59.3589 17.0882 60.2456 17.0893H92.2172C93.1039 17.0882 93.9768 16.8689 94.7591 16.4509C95.5414 16.0328 96.2092 15.4288 96.7038 14.6917C97.1983 13.9547 97.5046 13.1074 97.5955 12.2241C97.6864 11.3408 97.5593 10.4487 97.2253 9.62616H104.512C107.531 9.62667 110.425 10.8275 112.56 12.9646C114.695 15.1017 115.894 18.0002 115.895 21.0228V21.025Z" fill="white"/>
<path d="M101.995 104.258H52.162C51.9174 104.257 51.6828 104.16 51.5098 103.987C51.3368 103.813 51.2395 103.579 51.2393 103.334V90.9555C51.2396 90.7106 51.3369 90.4757 51.5099 90.3025C51.6829 90.1293 51.9174 90.0318 52.162 90.0315H101.995C102.239 90.0318 102.474 90.1293 102.647 90.3025C102.82 90.4757 102.917 90.7106 102.918 90.9555V103.334C102.917 103.579 102.82 103.814 102.647 103.987C102.474 104.16 102.239 104.257 101.995 104.258V104.258ZM52.162 90.401C52.0152 90.4011 51.8744 90.4596 51.7706 90.5636C51.6668 90.6675 51.6084 90.8085 51.6083 90.9555V103.334C51.6084 103.481 51.6668 103.622 51.7706 103.726C51.8744 103.83 52.0152 103.888 52.162 103.888H101.995C102.142 103.888 102.282 103.83 102.386 103.726C102.49 103.622 102.548 103.481 102.548 103.334V90.9555C102.548 90.8085 102.49 90.6675 102.386 90.5636C102.282 90.4596 102.142 90.4011 101.995 90.401H52.162Z" fill="#E6E6E6"/>
<path d="M67.5732 94.4892C67.4019 94.4892 67.2376 94.5574 67.1164 94.6787C66.9953 94.8 66.9272 94.9645 66.9272 95.1361C66.9272 95.3077 66.9953 95.4722 67.1164 95.5935C67.2376 95.7148 67.4019 95.783 67.5732 95.783H98.0263C98.1975 95.7896 98.3644 95.7277 98.4901 95.6111C98.6158 95.4945 98.6902 95.3327 98.6967 95.1612C98.7033 94.9898 98.6415 94.8227 98.5251 94.6968C98.4086 94.5709 98.247 94.4965 98.0758 94.4899C98.0663 94.4896 98.0569 94.4894 98.0474 94.4894L67.5732 94.4892Z" fill="#E6E6E6"/>
<path d="M67.5732 98.3698C67.4019 98.3698 67.2376 98.438 67.1164 98.5593C66.9953 98.6806 66.9272 98.8452 66.9272 99.0167C66.9272 99.1883 66.9953 99.3528 67.1164 99.4742C67.2376 99.5955 67.4019 99.6636 67.5732 99.6636H98.0263C98.1975 99.6702 98.3644 99.6084 98.4901 99.4918C98.6158 99.3752 98.6902 99.2133 98.6967 99.0419C98.7033 98.8704 98.6415 98.7033 98.5251 98.5774C98.4086 98.4515 98.247 98.3771 98.0758 98.3705C98.0663 98.3702 98.0569 98.37 98.0474 98.3701L67.5732 98.3698Z" fill="#E6E6E6"/>
<path d="M101.995 124.889H52.162C51.9174 124.889 51.6828 124.791 51.5098 124.618C51.3368 124.445 51.2395 124.21 51.2393 123.965V111.587C51.2396 111.342 51.3369 111.107 51.5099 110.934C51.6829 110.761 51.9174 110.663 52.162 110.663H101.995C102.239 110.663 102.474 110.761 102.647 110.934C102.82 111.107 102.917 111.342 102.918 111.587V123.965C102.917 124.21 102.82 124.445 102.647 124.618C102.474 124.791 102.239 124.889 101.995 124.889ZM52.162 111.033C52.0152 111.033 51.8744 111.091 51.7706 111.195C51.6668 111.299 51.6084 111.44 51.6083 111.587V123.965C51.6084 124.112 51.6668 124.253 51.7706 124.357C51.8744 124.461 52.0152 124.52 52.162 124.52H101.995C102.142 124.52 102.282 124.461 102.386 124.357C102.49 124.253 102.548 124.112 102.548 123.965V111.587C102.548 111.44 102.49 111.299 102.386 111.195C102.282 111.091 102.142 111.033 101.995 111.033H52.162Z" fill="#E6E6E6"/>
<path d="M67.5732 115.188C67.4019 115.188 67.2376 115.256 67.1164 115.377C66.9953 115.499 66.9272 115.663 66.9272 115.835C66.9272 116.006 66.9953 116.171 67.1164 116.292C67.2376 116.413 67.4019 116.482 67.5732 116.482H98.0263C98.1952 116.481 98.357 116.414 98.4771 116.295C98.5972 116.176 98.6659 116.014 98.6687 115.845C98.6714 115.676 98.608 115.513 98.4918 115.39C98.3757 115.267 98.2162 115.195 98.0474 115.188H67.5732V115.188Z" fill="#E6E6E6"/>
<path d="M67.5732 119.069C67.4019 119.069 67.2376 119.138 67.1164 119.259C66.9953 119.38 66.9272 119.545 66.9272 119.716C66.9272 119.888 66.9953 120.052 67.1164 120.174C67.2376 120.295 67.4019 120.363 67.5732 120.363H98.0263C98.1952 120.362 98.357 120.295 98.4771 120.176C98.5972 120.057 98.6659 119.896 98.6687 119.727C98.6714 119.558 98.608 119.394 98.4918 119.271C98.3757 119.149 98.2162 119.076 98.0474 119.07H67.5732V119.069Z" fill="#E6E6E6"/>
<path d="M101.995 145.588H52.162C51.9174 145.588 51.6828 145.491 51.5098 145.317C51.3368 145.144 51.2395 144.909 51.2393 144.664V132.286C51.2396 132.041 51.3369 131.806 51.5099 131.633C51.6829 131.46 51.9174 131.363 52.162 131.362H101.995C102.239 131.363 102.474 131.46 102.647 131.633C102.82 131.806 102.917 132.041 102.918 132.286V144.665C102.917 144.909 102.82 145.144 102.647 145.318C102.474 145.491 102.239 145.588 101.995 145.589V145.588ZM52.162 131.732C52.0152 131.732 51.8744 131.79 51.7706 131.894C51.6668 131.998 51.6084 132.139 51.6083 132.286V144.665C51.6084 144.812 51.6668 144.953 51.7706 145.056C51.8744 145.16 52.0152 145.219 52.162 145.219H101.995C102.142 145.219 102.282 145.16 102.386 145.056C102.49 144.953 102.548 144.812 102.548 144.665V132.286C102.548 132.139 102.49 131.998 102.386 131.894C102.282 131.79 102.142 131.732 101.995 131.732H52.162Z" fill="#E6E6E6"/>
<path d="M67.5732 135.888C67.4019 135.888 67.2376 135.956 67.1164 136.077C66.9953 136.198 66.9272 136.363 66.9272 136.535C66.9272 136.706 66.9953 136.871 67.1164 136.992C67.2376 137.113 67.4019 137.181 67.5732 137.181H98.0263C98.1111 137.185 98.1957 137.171 98.2753 137.142C98.3548 137.112 98.4279 137.067 98.4901 137.01C98.5524 136.952 98.6026 136.882 98.6381 136.805C98.6735 136.728 98.6935 136.645 98.6967 136.56C98.7 136.475 98.6865 136.39 98.657 136.31C98.6276 136.231 98.5827 136.158 98.5251 136.095C98.4674 136.033 98.3981 135.983 98.321 135.947C98.2439 135.912 98.1606 135.892 98.0758 135.888C98.0663 135.888 98.0569 135.888 98.0474 135.888L67.5732 135.888Z" fill="#E6E6E6"/>
<path d="M67.5732 139.769C67.4019 139.769 67.2376 139.837 67.1164 139.959C66.9953 140.08 66.9272 140.244 66.9272 140.416C66.9272 140.588 66.9953 140.752 67.1164 140.873C67.2376 140.995 67.4019 141.063 67.5732 141.063H98.0263C98.1111 141.066 98.1957 141.053 98.2753 141.023C98.3548 140.994 98.4279 140.949 98.4901 140.891C98.5524 140.833 98.6026 140.764 98.6381 140.687C98.6735 140.609 98.6935 140.526 98.6967 140.441C98.7 140.356 98.6865 140.271 98.657 140.192C98.6276 140.112 98.5827 140.039 98.5251 139.977C98.4674 139.914 98.3981 139.864 98.321 139.828C98.2439 139.793 98.1606 139.773 98.0758 139.77C98.0663 139.769 98.0569 139.769 98.0474 139.769H67.5732L67.5732 139.769Z" fill="#E6E6E6"/>
<path d="M58.379 100.95C60.5195 100.95 62.2548 99.212 62.2548 97.0685C62.2548 94.925 60.5195 93.1874 58.379 93.1874C56.2384 93.1874 54.5031 94.925 54.5031 97.0685C54.5031 99.212 56.2384 100.95 58.379 100.95Z" fill="url(#paint0_linear_57_130)"/>
<path d="M56.5235 96.3436C56.4789 96.3436 56.4427 96.6332 56.4427 96.9903C56.4427 97.3475 56.4789 97.6374 56.5235 97.6374H60.3346C60.3792 97.6432 60.416 97.3584 60.4168 97.0013C60.4415 96.7789 60.4143 96.5538 60.3372 96.3438H56.5235V96.3436Z" fill="#E6E6E6"/>
<path d="M58.379 121.657C60.5195 121.657 62.2548 119.92 62.2548 117.776C62.2548 115.633 60.5195 113.895 58.379 113.895C56.2384 113.895 54.5031 115.633 54.5031 117.776C54.5031 119.92 56.2384 121.657 58.379 121.657Z" fill="url(#paint1_linear_57_130)"/>
<path d="M56.5235 117.051C56.4789 117.051 56.4427 117.341 56.4427 117.698C56.4427 118.055 56.4789 118.345 56.5235 118.345H60.3346C60.3792 118.351 60.416 118.066 60.4168 117.709C60.4415 117.487 60.4143 117.261 60.3372 117.051L56.5235 117.051Z" fill="#E6E6E6"/>
<path d="M58.379 142.356C60.5195 142.356 62.2548 140.619 62.2548 138.475C62.2548 136.332 60.5195 134.594 58.379 134.594C56.2384 134.594 54.5031 136.332 54.5031 138.475C54.5031 140.619 56.2384 142.356 58.379 142.356Z" fill="url(#paint2_linear_57_130)"/>
<path d="M56.5235 137.75C56.4789 137.75 56.4427 138.04 56.4427 138.397C56.4427 138.754 56.4789 139.044 56.5235 139.044H60.3346C60.3792 139.05 60.416 138.765 60.4168 138.408C60.4415 138.186 60.4143 137.961 60.3372 137.751L56.5235 137.75Z" fill="#E6E6E6"/>
<path d="M66.0839 78.842V78.1H68.2749V78.842H66.0839ZM66.0839 80.788V80.067H68.2049V80.788H66.0839ZM65.5729 78.1H66.3849V83H65.5729V78.1ZM69.6691 81.74L69.8231 81.04H72.0981L72.2591 81.74H69.6691ZM70.9501 79.486L70.1801 81.285L70.1661 81.467L69.4871 83H68.5561L70.9501 77.827L73.3441 83H72.4131L71.7481 81.509L71.7271 81.306L70.9501 79.486ZM74.2641 78.1H75.0971V83H74.2641V78.1ZM76.5418 78.1H77.3678V82.258H79.3138V83H76.5418V78.1ZM80.7729 83V82.272H83.2439V83H80.7729ZM80.7729 78.828V78.1H83.2439V78.828H80.7729ZM80.7729 80.732V80.018H83.1039V80.732H80.7729ZM80.2619 78.1H81.0739V83H80.2619V78.1ZM84.6109 78.1H85.4509V83H84.6109V78.1ZM86.1929 83H85.1219V82.223H86.1719C86.4146 82.223 86.6386 82.188 86.8439 82.118C87.0493 82.048 87.2266 81.943 87.3759 81.803C87.5299 81.663 87.6489 81.488 87.7329 81.278C87.8216 81.068 87.8659 80.8253 87.8659 80.55C87.8659 80.2747 87.8216 80.032 87.7329 79.822C87.6489 79.612 87.5299 79.437 87.3759 79.297C87.2266 79.157 87.0493 79.052 86.8439 78.982C86.6386 78.912 86.4146 78.877 86.1719 78.877H85.1219V78.1H86.1929C86.6923 78.1 87.1309 78.2027 87.5089 78.408C87.8869 78.6087 88.1809 78.8933 88.3909 79.262C88.6056 79.626 88.7129 80.0553 88.7129 80.55C88.7129 81.0447 88.6056 81.4763 88.3909 81.845C88.1809 82.209 87.8869 82.4937 87.5089 82.699C87.1309 82.8997 86.6923 83 86.1929 83Z" fill="#275259"/>
<path d="M99.7947 68.7167L52.7659 68.7044C51.6036 68.7028 50.4901 68.2393 49.6699 67.4155C48.8496 66.5917 48.3894 65.4749 48.3903 64.3102L48.4345 41.413C48.438 40.2483 48.9025 39.1318 49.7259 38.3084C50.5494 37.4851 51.6646 37.0221 52.8269 37.0211L99.8557 37.0334C101.018 37.035 102.131 37.4986 102.952 38.3223C103.772 39.1461 104.232 40.2629 104.231 41.4276L104.187 64.3248C104.184 65.4895 103.719 66.606 102.896 67.4294C102.072 68.2528 100.957 68.7157 99.7947 68.7167Z" fill="url(#paint3_linear_57_130)"/>
<path d="M58.4735 44.3443C55.0564 45.1888 51.9953 42.5548 51.4646 40.1118L51.7025 40.0693C54.5826 39.4324 57.7922 41.4953 58.4735 44.3443Z" fill="white"/>
<path d="M91.3346 61.8388C91.0036 61.8566 90.6727 61.8057 90.3625 61.6893C90.0524 61.5729 89.7697 61.3935 89.5322 61.1624C88.5535 60.1484 88.6187 58.1944 88.6711 56.6243C88.6863 56.1675 88.7007 55.736 88.6877 55.3746L88.6876 55.3691C88.6924 54.663 88.9751 53.9868 89.4742 53.4875C89.9733 52.9882 90.6486 52.7061 91.3533 52.7024L97.679 52.7041C98.0096 52.6863 98.3401 52.7371 98.65 52.8534C98.9598 52.9696 99.2422 53.1487 99.4795 53.3795C100.458 54.3927 100.394 56.3463 100.342 57.916C100.327 58.3737 100.312 58.8061 100.326 59.1682C100.322 59.8753 100.04 60.5529 99.5401 61.0533C99.0406 61.5537 98.3645 61.8366 97.6588 61.8404L91.3346 61.8388Z" fill="white"/>
<path d="M54.9142 55.2269C54.7999 55.2312 54.6867 55.2041 54.5866 55.1487C54.4866 55.0933 54.4036 55.0116 54.3464 54.9124C54.2803 54.7942 54.2457 54.6609 54.2459 54.5253C54.2461 54.3897 54.2812 54.2564 54.3477 54.1383C54.4064 54.0371 54.4919 53.9542 54.5947 53.8987C54.6976 53.8432 54.8137 53.8172 54.9302 53.8237L57.3377 53.8244C57.4541 53.8182 57.57 53.8444 57.6724 53.9C57.7749 53.9556 57.8599 54.0385 57.9183 54.1396C57.9844 54.2578 58.0189 54.3911 58.0187 54.5267C58.0184 54.6622 57.9833 54.7955 57.9167 54.9136C57.8577 55.0144 57.7721 55.097 57.6694 55.1524C57.5667 55.2077 57.4508 55.2337 57.3344 55.2275L54.9268 55.2269L54.9142 55.2269Z" fill="white"/>
<path d="M52.0522 59.6893C51.8521 59.6577 51.6643 59.572 51.5092 59.4415C51.3541 59.311 51.2375 59.1406 51.1718 58.9485C51.0969 58.7204 51.0819 58.4767 51.1283 58.2408C51.1747 58.005 51.2809 57.785 51.4366 57.6021C51.5731 57.4461 51.7499 57.331 51.9475 57.2694C52.1451 57.2079 52.3558 57.2023 52.5561 57.2533L61.4728 57.3993C61.6774 57.4282 61.8699 57.5132 62.0292 57.6449C62.1885 57.7766 62.3083 57.9499 62.3754 58.1456C62.4502 58.3737 62.4651 58.6174 62.4186 58.8532C62.3721 59.089 62.2658 59.3089 62.11 59.4917C61.9732 59.647 61.7963 59.7615 61.599 59.8229C61.4016 59.8842 61.1912 59.8899 60.991 59.8394L52.0742 59.6934L52.0522 59.6893Z" fill="white"/>
<path d="M104.222 46.4121L48.5845 46.3976L48.584 46.6638L104.222 46.6783L104.222 46.4121Z" fill="white"/>
<path d="M91.7324 54L91 54.7334L97.1337 60.8755L97.8661 60.1421L91.7324 54Z" fill="#DE6389"/>
<path d="M97.8661 54.7334L97.1337 54L91 60.1421L91.7324 60.8755L97.8661 54.7334Z" fill="#DE6389"/>
<defs>
<linearGradient id="paint0_linear_57_130" x1="54.7704" y1="93.1874" x2="62.2548" y2="93.1874" gradientUnits="userSpaceOnUse">
<stop stop-color="#38909E"/>
<stop offset="1" stop-color="#56BBCB"/>
</linearGradient>
<linearGradient id="paint1_linear_57_130" x1="54.7704" y1="113.895" x2="62.2548" y2="113.895" gradientUnits="userSpaceOnUse">
<stop stop-color="#38909E"/>
<stop offset="1" stop-color="#56BBCB"/>
</linearGradient>
<linearGradient id="paint2_linear_57_130" x1="54.7704" y1="134.594" x2="62.2548" y2="134.594" gradientUnits="userSpaceOnUse">
<stop stop-color="#38909E"/>
<stop offset="1" stop-color="#56BBCB"/>
</linearGradient>
<linearGradient id="paint3_linear_57_130" x1="81.7704" y1="50.4858" x2="47.5562" y2="42.4353" gradientUnits="userSpaceOnUse">
<stop stop-color="#DE6389"/>
<stop offset="1" stop-color="#EA8FA9" stop-opacity="0.8"/>
</linearGradient>
</defs>
</svg>
