<svg width="375" height="90" viewBox="0 0 375 90" fill="none" xmlns="http://www.w3.org/2000/svg">
<path d="M45.2493 60.2C45.2493 60.584 45.3293 60.928 45.4893 61.232C45.6546 61.5307 45.8813 61.7653 46.1693 61.936C46.4573 62.1067 46.7853 62.192 47.1533 62.192C47.5266 62.192 47.8546 62.1067 48.1373 61.936C48.4253 61.7653 48.6493 61.5307 48.8093 61.232C48.9746 60.928 49.0573 60.584 49.0573 60.2C49.0573 59.816 48.9773 59.4747 48.8173 59.176C48.6573 58.872 48.4333 58.6347 48.1453 58.464C47.8626 58.2933 47.532 58.208 47.1533 58.208C46.7853 58.208 46.4573 58.2933 46.1693 58.464C45.8813 58.6347 45.6546 58.872 45.4893 59.176C45.3293 59.4747 45.2493 59.816 45.2493 60.2ZM44.2493 60.2C44.2493 59.7787 44.3213 59.392 44.4653 59.04C44.6093 58.688 44.812 58.384 45.0733 58.128C45.34 57.8667 45.6493 57.664 46.0013 57.52C46.3586 57.376 46.7426 57.304 47.1533 57.304C47.5746 57.304 47.9613 57.376 48.3133 57.52C48.6653 57.664 48.972 57.8667 49.2333 58.128C49.5 58.384 49.7053 58.688 49.8493 59.04C49.9933 59.392 50.0653 59.7787 50.0653 60.2C50.0653 60.616 49.9933 61.0027 49.8493 61.36C49.7053 61.7173 49.5026 62.0267 49.2413 62.288C48.98 62.5493 48.6706 62.7547 48.3133 62.904C47.9613 63.048 47.5746 63.12 47.1533 63.12C46.7373 63.12 46.3506 63.048 45.9933 62.904C45.636 62.7547 45.3266 62.5493 45.0653 62.288C44.8093 62.0267 44.6093 61.7173 44.4653 61.36C44.3213 61.0027 44.2493 60.616 44.2493 60.2ZM52.5354 60.328H53.5594L55.4554 63H54.3194L52.5354 60.328ZM51.3834 57.4H52.3274V63H51.3834V57.4ZM51.9434 58.216V57.4H53.1114C53.5167 57.4 53.8687 57.472 54.1674 57.616C54.4714 57.76 54.706 57.9627 54.8714 58.224C55.0367 58.48 55.1194 58.784 55.1194 59.136C55.1194 59.488 55.0367 59.7947 54.8714 60.056C54.706 60.3173 54.4714 60.52 54.1674 60.664C53.8687 60.808 53.5167 60.88 53.1114 60.88H51.9434V60.104H53.0714C53.2847 60.104 53.4714 60.0667 53.6314 59.992C53.7967 59.9173 53.9247 59.8107 54.0154 59.672C54.106 59.528 54.1514 59.3573 54.1514 59.16C54.1514 58.9573 54.106 58.7867 54.0154 58.648C53.9247 58.5093 53.7967 58.4027 53.6314 58.328C53.4714 58.2533 53.2847 58.216 53.0714 58.216H51.9434ZM56.5412 57.4H57.5012V63H56.5412V57.4ZM58.3492 63H57.1252V62.112H58.3252C58.6025 62.112 58.8585 62.072 59.0932 61.992C59.3279 61.912 59.5305 61.792 59.7012 61.632C59.8772 61.472 60.0132 61.272 60.1092 61.032C60.2105 60.792 60.2612 60.5147 60.2612 60.2C60.2612 59.8853 60.2105 59.608 60.1092 59.368C60.0132 59.128 59.8772 58.928 59.7012 58.768C59.5305 58.608 59.3279 58.488 59.0932 58.408C58.8585 58.328 58.6025 58.288 58.3252 58.288H57.1252V57.4H58.3492C58.9199 57.4 59.4212 57.5173 59.8532 57.752C60.2852 57.9813 60.6212 58.3067 60.8612 58.728C61.1065 59.144 61.2292 59.6347 61.2292 60.2C61.2292 60.7653 61.1065 61.2587 60.8612 61.68C60.6212 62.096 60.2852 62.4213 59.8532 62.656C59.4212 62.8853 58.9199 63 58.3492 63ZM63.1346 63V62.168H65.9586V63H63.1346ZM63.1346 58.232V57.4H65.9586V58.232H63.1346ZM63.1346 60.408V59.592H65.7986V60.408H63.1346ZM62.5506 57.4H63.4786V63H62.5506V57.4ZM68.6729 60.328H69.6969L71.5929 63H70.4569L68.6729 60.328ZM67.5209 57.4H68.4649V63H67.5209V57.4ZM68.0809 58.216V57.4H69.2489C69.6542 57.4 70.0062 57.472 70.3049 57.616C70.6089 57.76 70.8435 57.9627 71.0089 58.224C71.1742 58.48 71.2569 58.784 71.2569 59.136C71.2569 59.488 71.1742 59.7947 71.0089 60.056C70.8435 60.3173 70.6089 60.52 70.3049 60.664C70.0062 60.808 69.6542 60.88 69.2489 60.88H68.0809V60.104H69.2089C69.4222 60.104 69.6089 60.0667 69.7689 59.992C69.9342 59.9173 70.0622 59.8107 70.1529 59.672C70.2435 59.528 70.2889 59.3573 70.2889 59.16C70.2889 58.9573 70.2435 58.7867 70.1529 58.648C70.0622 58.5093 69.9342 58.4027 69.7689 58.328C69.6089 58.2533 69.4222 58.216 69.2089 58.216H68.0809ZM34.595 72.2C34.595 72.5947 34.683 72.9413 34.859 73.24C35.0403 73.5387 35.275 73.7707 35.563 73.936C35.8563 74.096 36.1737 74.176 36.515 74.176C36.7817 74.176 37.0217 74.1413 37.235 74.072C37.4483 74.0027 37.6403 73.9093 37.811 73.792C37.987 73.6693 38.139 73.5333 38.267 73.384V74.504C38.0323 74.696 37.779 74.8427 37.507 74.944C37.235 75.0453 36.8937 75.096 36.483 75.096C36.0723 75.096 35.6883 75.0267 35.331 74.888C34.979 74.7493 34.6723 74.5493 34.411 74.288C34.1497 74.0267 33.9443 73.72 33.795 73.368C33.651 73.0107 33.579 72.6213 33.579 72.2C33.579 71.7787 33.651 71.392 33.795 71.04C33.9443 70.6827 34.1497 70.3733 34.411 70.112C34.6723 69.8507 34.979 69.6507 35.331 69.512C35.6883 69.3733 36.0723 69.304 36.483 69.304C36.8937 69.304 37.235 69.3547 37.507 69.456C37.779 69.5573 38.0323 69.704 38.267 69.896V71.016C38.139 70.8667 37.987 70.7333 37.811 70.616C37.6403 70.4933 37.4483 70.3973 37.235 70.328C37.0217 70.2587 36.7817 70.224 36.515 70.224C36.1737 70.224 35.8563 70.3067 35.563 70.472C35.275 70.632 35.0403 70.8613 34.859 71.16C34.683 71.4533 34.595 71.8 34.595 72.2ZM40.5102 72.2C40.5102 72.584 40.5902 72.928 40.7502 73.232C40.9156 73.5307 41.1422 73.7653 41.4302 73.936C41.7182 74.1067 42.0462 74.192 42.4142 74.192C42.7876 74.192 43.1156 74.1067 43.3982 73.936C43.6862 73.7653 43.9102 73.5307 44.0702 73.232C44.2356 72.928 44.3182 72.584 44.3182 72.2C44.3182 71.816 44.2382 71.4747 44.0782 71.176C43.9182 70.872 43.6942 70.6347 43.4062 70.464C43.1236 70.2933 42.7929 70.208 42.4142 70.208C42.0462 70.208 41.7182 70.2933 41.4302 70.464C41.1422 70.6347 40.9156 70.872 40.7502 71.176C40.5902 71.4747 40.5102 71.816 40.5102 72.2ZM39.5102 72.2C39.5102 71.7787 39.5822 71.392 39.7262 71.04C39.8702 70.688 40.0729 70.384 40.3342 70.128C40.6009 69.8667 40.9102 69.664 41.2622 69.52C41.6196 69.376 42.0036 69.304 42.4142 69.304C42.8356 69.304 43.2222 69.376 43.5742 69.52C43.9262 69.664 44.2329 69.8667 44.4942 70.128C44.7609 70.384 44.9662 70.688 45.1102 71.04C45.2542 71.392 45.3262 71.7787 45.3262 72.2C45.3262 72.616 45.2542 73.0027 45.1102 73.36C44.9662 73.7173 44.7636 74.0267 44.5022 74.288C44.2409 74.5493 43.9316 74.7547 43.5742 74.904C43.2222 75.048 42.8356 75.12 42.4142 75.12C41.9982 75.12 41.6116 75.048 41.2542 74.904C40.8969 74.7547 40.5876 74.5493 40.3262 74.288C40.0702 74.0267 39.8702 73.7173 39.7262 73.36C39.5822 73.0027 39.5102 72.616 39.5102 72.2ZM50.7323 69.4H51.6603V75.28L47.5723 71.24V75H46.6443V69.12L50.7323 73.16V69.4ZM53.8861 70.248V69.4H56.3901V70.248H53.8861ZM53.8861 72.472V71.648H56.3101V72.472H53.8861ZM53.3021 69.4H54.2301V75H53.3021V69.4ZM57.874 69.4H58.826V75H57.874V69.4ZM61.6291 72.328H62.6531L64.5491 75H63.4131L61.6291 72.328ZM60.4771 69.4H61.4211V75H60.4771V69.4ZM61.0371 70.216V69.4H62.2051C62.6105 69.4 62.9625 69.472 63.2611 69.616C63.5651 69.76 63.7998 69.9627 63.9651 70.224C64.1305 70.48 64.2131 70.784 64.2131 71.136C64.2131 71.488 64.1305 71.7947 63.9651 72.056C63.7998 72.3173 63.5651 72.52 63.2611 72.664C62.9625 72.808 62.6105 72.88 62.2051 72.88H61.0371V72.104H62.1651C62.3785 72.104 62.5651 72.0667 62.7251 71.992C62.8905 71.9173 63.0185 71.8107 63.1091 71.672C63.1998 71.528 63.2451 71.3573 63.2451 71.16C63.2451 70.9573 63.1998 70.7867 63.1091 70.648C63.0185 70.5093 62.8905 70.4027 62.7251 70.328C62.5651 70.2533 62.3785 70.216 62.1651 70.216H61.0371ZM66.6749 71.592L66.2909 75H65.3149L66.0829 69.12L68.3789 72.92L70.6829 69.12L71.4509 75H70.4749L70.0829 71.592L68.3789 74.48L66.6749 71.592ZM73.3533 75V74.168H76.1773V75H73.3533ZM73.3533 70.232V69.4H76.1773V70.232H73.3533ZM73.3533 72.408V71.592H76.0173V72.408H73.3533ZM72.7693 69.4H73.6973V75H72.7693V69.4ZM77.7396 69.4H78.6996V75H77.7396V69.4ZM79.5476 75H78.3236V74.112H79.5236C79.801 74.112 80.057 74.072 80.2916 73.992C80.5263 73.912 80.729 73.792 80.8996 73.632C81.0756 73.472 81.2116 73.272 81.3076 73.032C81.409 72.792 81.4596 72.5147 81.4596 72.2C81.4596 71.8853 81.409 71.608 81.3076 71.368C81.2116 71.128 81.0756 70.928 80.8996 70.768C80.729 70.608 80.5263 70.488 80.2916 70.408C80.057 70.328 79.801 70.288 79.5236 70.288H78.3236V69.4H79.5476C80.1183 69.4 80.6196 69.5173 81.0516 69.752C81.4836 69.9813 81.8196 70.3067 82.0596 70.728C82.305 71.144 82.4276 71.6347 82.4276 72.2C82.4276 72.7653 82.305 73.2587 82.0596 73.68C81.8196 74.096 81.4836 74.4213 81.0516 74.656C80.6196 74.8853 80.1183 75 79.5476 75Z" fill="#112326"/>
<path d="M133.05 60.2C133.05 60.584 133.13 60.928 133.29 61.232C133.455 61.5307 133.682 61.7653 133.97 61.936C134.258 62.1067 134.586 62.192 134.954 62.192C135.327 62.192 135.655 62.1067 135.938 61.936C136.226 61.7653 136.45 61.5307 136.61 61.232C136.775 60.928 136.858 60.584 136.858 60.2C136.858 59.816 136.778 59.4747 136.618 59.176C136.458 58.872 136.234 58.6347 135.946 58.464C135.663 58.2933 135.333 58.208 134.954 58.208C134.586 58.208 134.258 58.2933 133.97 58.464C133.682 58.6347 133.455 58.872 133.29 59.176C133.13 59.4747 133.05 59.816 133.05 60.2ZM132.05 60.2C132.05 59.7787 132.122 59.392 132.266 59.04C132.41 58.688 132.613 58.384 132.874 58.128C133.141 57.8667 133.45 57.664 133.802 57.52C134.159 57.376 134.543 57.304 134.954 57.304C135.375 57.304 135.762 57.376 136.114 57.52C136.466 57.664 136.773 57.8667 137.034 58.128C137.301 58.384 137.506 58.688 137.65 59.04C137.794 59.392 137.866 59.7787 137.866 60.2C137.866 60.616 137.794 61.0027 137.65 61.36C137.506 61.7173 137.303 62.0267 137.042 62.288C136.781 62.5493 136.471 62.7547 136.114 62.904C135.762 63.048 135.375 63.12 134.954 63.12C134.538 63.12 134.151 63.048 133.794 62.904C133.437 62.7547 133.127 62.5493 132.866 62.288C132.61 62.0267 132.41 61.7173 132.266 61.36C132.122 61.0027 132.05 60.616 132.05 60.2ZM140.336 60.328H141.36L143.256 63H142.12L140.336 60.328ZM139.184 57.4H140.128V63H139.184V57.4ZM139.744 58.216V57.4H140.912C141.317 57.4 141.669 57.472 141.968 57.616C142.272 57.76 142.507 57.9627 142.672 58.224C142.837 58.48 142.92 58.784 142.92 59.136C142.92 59.488 142.837 59.7947 142.672 60.056C142.507 60.3173 142.272 60.52 141.968 60.664C141.669 60.808 141.317 60.88 140.912 60.88H139.744V60.104H140.872C141.085 60.104 141.272 60.0667 141.432 59.992C141.597 59.9173 141.725 59.8107 141.816 59.672C141.907 59.528 141.952 59.3573 141.952 59.16C141.952 58.9573 141.907 58.7867 141.816 58.648C141.725 58.5093 141.597 58.4027 141.432 58.328C141.272 58.2533 141.085 58.216 140.872 58.216H139.744ZM144.342 57.4H145.302V63H144.342V57.4ZM146.15 63H144.926V62.112H146.126C146.403 62.112 146.659 62.072 146.894 61.992C147.129 61.912 147.331 61.792 147.502 61.632C147.678 61.472 147.814 61.272 147.91 61.032C148.011 60.792 148.062 60.5147 148.062 60.2C148.062 59.8853 148.011 59.608 147.91 59.368C147.814 59.128 147.678 58.928 147.502 58.768C147.331 58.608 147.129 58.488 146.894 58.408C146.659 58.328 146.403 58.288 146.126 58.288H144.926V57.4H146.15C146.721 57.4 147.222 57.5173 147.654 57.752C148.086 57.9813 148.422 58.3067 148.662 58.728C148.907 59.144 149.03 59.6347 149.03 60.2C149.03 60.7653 148.907 61.2587 148.662 61.68C148.422 62.096 148.086 62.4213 147.654 62.656C147.222 62.8853 146.721 63 146.15 63ZM150.935 63V62.168H153.759V63H150.935ZM150.935 58.232V57.4H153.759V58.232H150.935ZM150.935 60.408V59.592H153.599V60.408H150.935ZM150.351 57.4H151.279V63H150.351V57.4ZM156.474 60.328H157.498L159.394 63H158.258L156.474 60.328ZM155.322 57.4H156.266V63H155.322V57.4ZM155.882 58.216V57.4H157.05C157.455 57.4 157.807 57.472 158.106 57.616C158.41 57.76 158.644 57.9627 158.81 58.224C158.975 58.48 159.058 58.784 159.058 59.136C159.058 59.488 158.975 59.7947 158.81 60.056C158.644 60.3173 158.41 60.52 158.106 60.664C157.807 60.808 157.455 60.88 157.05 60.88H155.882V60.104H157.01C157.223 60.104 157.41 60.0667 157.57 59.992C157.735 59.9173 157.863 59.8107 157.954 59.672C158.044 59.528 158.09 59.3573 158.09 59.16C158.09 58.9573 158.044 58.7867 157.954 58.648C157.863 58.5093 157.735 58.4027 157.57 58.328C157.41 58.2533 157.223 58.216 157.01 58.216H155.882ZM130.683 73.2C130.805 73.4133 130.936 73.6027 131.075 73.768C131.219 73.928 131.376 74.0533 131.547 74.144C131.717 74.2293 131.909 74.272 132.123 74.272C132.379 74.272 132.587 74.2027 132.747 74.064C132.907 73.9253 132.987 73.7467 132.987 73.528C132.987 73.32 132.936 73.1547 132.835 73.032C132.733 72.904 132.592 72.7973 132.411 72.712C132.235 72.6213 132.029 72.5333 131.795 72.448C131.656 72.4 131.501 72.336 131.331 72.256C131.16 72.1707 130.997 72.0667 130.843 71.944C130.688 71.816 130.56 71.6613 130.459 71.48C130.357 71.2933 130.307 71.0693 130.307 70.808C130.307 70.5093 130.384 70.248 130.539 70.024C130.693 69.7947 130.901 69.6187 131.163 69.496C131.429 69.368 131.731 69.304 132.067 69.304C132.397 69.304 132.685 69.3627 132.931 69.48C133.176 69.5973 133.381 69.7467 133.547 69.928C133.717 70.1093 133.851 70.2987 133.947 70.496L133.179 70.928C133.109 70.7893 133.021 70.6613 132.915 70.544C132.808 70.4213 132.683 70.3253 132.539 70.256C132.4 70.1813 132.237 70.144 132.051 70.144C131.789 70.144 131.597 70.2053 131.475 70.328C131.352 70.4453 131.291 70.584 131.291 70.744C131.291 70.888 131.333 71.0187 131.419 71.136C131.509 71.248 131.648 71.3547 131.835 71.456C132.021 71.5573 132.264 71.6613 132.563 71.768C132.728 71.8267 132.893 71.9013 133.059 71.992C133.229 72.0827 133.384 72.1973 133.523 72.336C133.661 72.4693 133.771 72.6267 133.851 72.808C133.936 72.9893 133.979 73.2027 133.979 73.448C133.979 73.7093 133.928 73.944 133.827 74.152C133.725 74.36 133.587 74.536 133.411 74.68C133.235 74.8187 133.035 74.9253 132.811 75C132.592 75.08 132.363 75.12 132.123 75.12C131.792 75.12 131.485 75.056 131.203 74.928C130.925 74.7947 130.683 74.6187 130.475 74.4C130.267 74.1813 130.101 73.944 129.979 73.688L130.683 73.2ZM135.723 72.432V71.56H139.715V72.432H135.723ZM139.107 69.4H140.051V75H139.107V69.4ZM135.347 69.4H136.291V75H135.347V69.4ZM141.701 69.4H142.653V75H141.701V69.4ZM144.304 69.4H145.248V75H144.304V69.4ZM144.864 70.232V69.4H145.992C146.397 69.4 146.749 69.472 147.048 69.616C147.352 69.7547 147.586 69.9547 147.752 70.216C147.917 70.472 148 70.7787 148 71.136C148 71.4933 147.917 71.8027 147.752 72.064C147.586 72.3253 147.352 72.528 147.048 72.672C146.749 72.8107 146.397 72.88 145.992 72.88H144.864V72.048H145.992C146.317 72.048 146.578 71.9707 146.776 71.816C146.973 71.6613 147.072 71.4347 147.072 71.136C147.072 70.8373 146.973 70.6133 146.776 70.464C146.578 70.3093 146.317 70.232 145.992 70.232H144.864ZM149.329 69.4H150.273V75H149.329V69.4ZM149.889 70.232V69.4H151.017C151.422 69.4 151.774 69.472 152.073 69.616C152.377 69.7547 152.611 69.9547 152.777 70.216C152.942 70.472 153.025 70.7787 153.025 71.136C153.025 71.4933 152.942 71.8027 152.777 72.064C152.611 72.3253 152.377 72.528 152.073 72.672C151.774 72.8107 151.422 72.88 151.017 72.88H149.889V72.048H151.017C151.342 72.048 151.603 71.9707 151.801 71.816C151.998 71.6613 152.097 71.4347 152.097 71.136C152.097 70.8373 151.998 70.6133 151.801 70.464C151.603 70.3093 151.342 70.232 151.017 70.232H149.889ZM154.938 75V74.168H157.762V75H154.938ZM154.938 70.232V69.4H157.762V70.232H154.938ZM154.938 72.408V71.592H157.602V72.408H154.938ZM154.354 69.4H155.282V75H154.354V69.4ZM159.324 69.4H160.284V75H159.324V69.4ZM161.132 75H159.908V74.112H161.108C161.385 74.112 161.641 74.072 161.876 73.992C162.111 73.912 162.313 73.792 162.484 73.632C162.66 73.472 162.796 73.272 162.892 73.032C162.993 72.792 163.044 72.5147 163.044 72.2C163.044 71.8853 162.993 71.608 162.892 71.368C162.796 71.128 162.66 70.928 162.484 70.768C162.313 70.608 162.111 70.488 161.876 70.408C161.641 70.328 161.385 70.288 161.108 70.288H159.908V69.4H161.132C161.703 69.4 162.204 69.5173 162.636 69.752C163.068 69.9813 163.404 70.3067 163.644 70.728C163.889 71.144 164.012 71.6347 164.012 72.2C164.012 72.7653 163.889 73.2587 163.644 73.68C163.404 74.096 163.068 74.4213 162.636 74.656C162.204 74.8853 161.703 75 161.132 75Z" fill="#112326"/>
<path d="M217.385 60.2C217.385 60.584 217.465 60.928 217.625 61.232C217.791 61.5307 218.017 61.7653 218.305 61.936C218.593 62.1067 218.921 62.192 219.289 62.192C219.663 62.192 219.991 62.1067 220.273 61.936C220.561 61.7653 220.785 61.5307 220.945 61.232C221.111 60.928 221.193 60.584 221.193 60.2C221.193 59.816 221.113 59.4747 220.953 59.176C220.793 58.872 220.569 58.6347 220.281 58.464C219.999 58.2933 219.668 58.208 219.289 58.208C218.921 58.208 218.593 58.2933 218.305 58.464C218.017 58.6347 217.791 58.872 217.625 59.176C217.465 59.4747 217.385 59.816 217.385 60.2ZM216.385 60.2C216.385 59.7787 216.457 59.392 216.601 59.04C216.745 58.688 216.948 58.384 217.209 58.128C217.476 57.8667 217.785 57.664 218.137 57.52C218.495 57.376 218.879 57.304 219.289 57.304C219.711 57.304 220.097 57.376 220.449 57.52C220.801 57.664 221.108 57.8667 221.369 58.128C221.636 58.384 221.841 58.688 221.985 59.04C222.129 59.392 222.201 59.7787 222.201 60.2C222.201 60.616 222.129 61.0027 221.985 61.36C221.841 61.7173 221.639 62.0267 221.377 62.288C221.116 62.5493 220.807 62.7547 220.449 62.904C220.097 63.048 219.711 63.12 219.289 63.12C218.873 63.12 218.487 63.048 218.129 62.904C217.772 62.7547 217.463 62.5493 217.201 62.288C216.945 62.0267 216.745 61.7173 216.601 61.36C216.457 61.0027 216.385 60.616 216.385 60.2ZM223.479 57.4H224.423V61.12C224.423 61.4667 224.514 61.7467 224.695 61.96C224.882 62.168 225.157 62.272 225.519 62.272C225.877 62.272 226.149 62.168 226.335 61.96C226.522 61.7467 226.615 61.4667 226.615 61.12V57.4H227.559V61.16C227.559 61.4693 227.509 61.7467 227.407 61.992C227.311 62.232 227.173 62.4373 226.991 62.608C226.81 62.7787 226.594 62.9093 226.343 63C226.093 63.0907 225.818 63.136 225.519 63.136C225.221 63.136 224.946 63.0907 224.695 63C224.445 62.9093 224.226 62.7787 224.039 62.608C223.858 62.4373 223.719 62.232 223.623 61.992C223.527 61.7467 223.479 61.4693 223.479 61.16V57.4ZM228.609 58.272V57.4H232.513V58.272H231.033V63H230.081V58.272H228.609ZM236.983 58.248V57.4H239.487V58.248H236.983ZM236.983 60.472V59.648H239.407V60.472H236.983ZM236.399 57.4H237.327V63H236.399V57.4ZM241.651 60.2C241.651 60.584 241.731 60.928 241.891 61.232C242.056 61.5307 242.283 61.7653 242.571 61.936C242.859 62.1067 243.187 62.192 243.555 62.192C243.928 62.192 244.256 62.1067 244.539 61.936C244.827 61.7653 245.051 61.5307 245.211 61.232C245.376 60.928 245.459 60.584 245.459 60.2C245.459 59.816 245.379 59.4747 245.219 59.176C245.059 58.872 244.835 58.6347 244.547 58.464C244.264 58.2933 243.934 58.208 243.555 58.208C243.187 58.208 242.859 58.2933 242.571 58.464C242.283 58.6347 242.056 58.872 241.891 59.176C241.731 59.4747 241.651 59.816 241.651 60.2ZM240.651 60.2C240.651 59.7787 240.723 59.392 240.867 59.04C241.011 58.688 241.214 58.384 241.475 58.128C241.742 57.8667 242.051 57.664 242.403 57.52C242.76 57.376 243.144 57.304 243.555 57.304C243.976 57.304 244.363 57.376 244.715 57.52C245.067 57.664 245.374 57.8667 245.635 58.128C245.902 58.384 246.107 58.688 246.251 59.04C246.395 59.392 246.467 59.7787 246.467 60.2C246.467 60.616 246.395 61.0027 246.251 61.36C246.107 61.7173 245.904 62.0267 245.643 62.288C245.382 62.5493 245.072 62.7547 244.715 62.904C244.363 63.048 243.976 63.12 243.555 63.12C243.139 63.12 242.752 63.048 242.395 62.904C242.038 62.7547 241.728 62.5493 241.467 62.288C241.211 62.0267 241.011 61.7173 240.867 61.36C240.723 61.0027 240.651 60.616 240.651 60.2ZM248.937 60.328H249.961L251.857 63H250.721L248.937 60.328ZM247.785 57.4H248.729V63H247.785V57.4ZM248.345 58.216V57.4H249.513C249.918 57.4 250.27 57.472 250.569 57.616C250.873 57.76 251.108 57.9627 251.273 58.224C251.438 58.48 251.521 58.784 251.521 59.136C251.521 59.488 251.438 59.7947 251.273 60.056C251.108 60.3173 250.873 60.52 250.569 60.664C250.27 60.808 249.918 60.88 249.513 60.88H248.345V60.104H249.473C249.686 60.104 249.873 60.0667 250.033 59.992C250.198 59.9173 250.326 59.8107 250.417 59.672C250.508 59.528 250.553 59.3573 250.553 59.16C250.553 58.9573 250.508 58.7867 250.417 58.648C250.326 58.5093 250.198 58.4027 250.033 58.328C249.873 58.2533 249.686 58.216 249.473 58.216H248.345ZM215.279 69.4H216.239V75H215.279V69.4ZM217.087 75H215.863V74.112H217.063C217.34 74.112 217.596 74.072 217.831 73.992C218.065 73.912 218.268 73.792 218.439 73.632C218.615 73.472 218.751 73.272 218.847 73.032C218.948 72.792 218.999 72.5147 218.999 72.2C218.999 71.8853 218.948 71.608 218.847 71.368C218.751 71.128 218.615 70.928 218.439 70.768C218.268 70.608 218.065 70.488 217.831 70.408C217.596 70.328 217.34 70.288 217.063 70.288H215.863V69.4H217.087C217.657 69.4 218.159 69.5173 218.591 69.752C219.023 69.9813 219.359 70.3067 219.599 70.728C219.844 71.144 219.967 71.6347 219.967 72.2C219.967 72.7653 219.844 73.2587 219.599 73.68C219.359 74.096 219.023 74.4213 218.591 74.656C218.159 74.8853 217.657 75 217.087 75ZM221.872 75V74.168H224.696V75H221.872ZM221.872 70.232V69.4H224.696V70.232H221.872ZM221.872 72.408V71.592H224.536V72.408H221.872ZM221.288 69.4H222.216V75H221.288V69.4ZM226.258 69.4H227.202V74.152H229.426V75H226.258V69.4ZM230.51 69.4H231.462V75H230.51V69.4ZM235.249 73.336L236.897 69.4H237.985L235.249 75.312L232.513 69.4H233.601L235.249 73.336ZM239.621 75V74.168H242.445V75H239.621ZM239.621 70.232V69.4H242.445V70.232H239.621ZM239.621 72.408V71.592H242.285V72.408H239.621ZM239.037 69.4H239.965V75H239.037V69.4ZM245.159 72.328H246.183L248.079 75H246.943L245.159 72.328ZM244.007 69.4H244.951V75H244.007V69.4ZM244.567 70.216V69.4H245.735C246.14 69.4 246.492 69.472 246.791 69.616C247.095 69.76 247.329 69.9627 247.495 70.224C247.66 70.48 247.743 70.784 247.743 71.136C247.743 71.488 247.66 71.7947 247.495 72.056C247.329 72.3173 247.095 72.52 246.791 72.664C246.492 72.808 246.14 72.88 245.735 72.88H244.567V72.104H245.695C245.908 72.104 246.095 72.0667 246.255 71.992C246.42 71.9173 246.548 71.8107 246.639 71.672C246.729 71.528 246.775 71.3573 246.775 71.16C246.775 70.9573 246.729 70.7867 246.639 70.648C246.548 70.5093 246.42 70.4027 246.255 70.328C246.095 70.2533 245.908 70.216 245.695 70.216H244.567ZM252.245 69.4H253.325L251.421 72.64V75H250.461V72.648L248.565 69.4H249.637L250.941 71.8L252.245 69.4Z" fill="#112326"/>
<line x1="230" y1="32.5" x2="59" y2="32.5" stroke="#3AB037"/>
<line x1="234" y1="32.5" x2="319" y2="32.5" stroke="#BDBDBD" stroke-dasharray="4 4"/>
<circle cx="144.5" cy="31.5" r="17.5" fill="url(#paint0_linear_20_430)"/>
<circle cx="231.5" cy="31.5" r="17.5" fill="url(#paint1_linear_20_430)"/>
<circle cx="318.5" cy="31.5" r="17.5" fill="url(#paint2_linear_20_430)"/>
<circle cx="144.5" cy="31.5" r="14.5" fill="#EA92AA"/>
<circle cx="231.5" cy="31.5" r="14.5" fill="#EA92AA"/>
<path d="M227.629 31.0297C228.559 31.0343 229.452 31.3916 230.129 32.0295H232.838C232.975 32.0273 233.108 31.9819 233.218 31.8995L234.998 30.4998V27.5005H232.998V26.2507H235.897C235.997 26.1182 236.107 25.9945 236.227 25.8808C236.448 25.665 236.71 25.4951 236.997 25.3809C237.316 25.2567 237.655 25.1956 237.997 25.2009V27.5005H236.247V30.6598C236.248 30.7726 236.279 30.8832 236.337 30.9797L237.807 33.4292C238.386 33.475 238.928 33.7311 239.332 34.1491C239.735 34.5672 239.972 35.1183 239.997 35.6987C239.968 36.3344 239.689 36.9329 239.221 37.3637C238.753 37.7945 238.133 38.0226 237.497 37.9982C236.861 38.0226 236.242 37.7945 235.773 37.3637C235.305 36.9329 235.026 36.3344 234.998 35.6987H224V34.499C224.009 34.0324 224.11 33.5723 224.298 33.145C224.485 32.7178 224.756 32.3318 225.093 32.0094C225.43 31.687 225.828 31.4344 226.263 31.2663C226.699 31.0982 227.163 31.0177 227.629 31.0297ZM227.629 32.2794C227.327 32.2674 227.025 32.3154 226.741 32.4207C226.458 32.526 226.198 32.6865 225.977 32.8929C225.755 33.0993 225.577 33.3475 225.452 33.6232C225.328 33.8988 225.259 34.1965 225.25 34.499H229.999C229.99 34.1974 229.921 33.9006 229.797 33.6256C229.673 33.3506 229.496 33.1028 229.275 32.8966C229.055 32.6903 228.796 32.5296 228.514 32.4237C228.231 32.3178 227.931 32.2688 227.629 32.2794ZM237.497 36.7485C237.802 36.7735 238.104 36.6772 238.338 36.4806C238.572 36.2841 238.719 36.003 238.747 35.6987C238.707 35.4034 238.555 35.1348 238.322 34.9487C238.089 34.7625 237.794 34.6731 237.497 34.6989C237.2 34.6731 236.905 34.7625 236.672 34.9487C236.439 35.1348 236.287 35.4034 236.247 35.6987C236.275 36.003 236.422 36.2841 236.656 36.4806C236.89 36.6772 237.193 36.7735 237.497 36.7485ZM235.408 34.499C235.674 34.1261 236.042 33.838 236.467 33.6691L235.378 31.7995L233.998 32.8593C233.672 33.1039 233.276 33.2371 232.868 33.2392H230.999C231.166 33.6381 231.251 34.0665 231.248 34.499H235.408Z" fill="white"/>
<path d="M225.25 25.001H228.999C229.167 24.9943 229.335 25.0216 229.492 25.0814C229.65 25.1412 229.794 25.2322 229.915 25.3489C230.036 25.4656 230.133 25.6057 230.199 25.7606C230.265 25.9156 230.299 26.0823 230.299 26.2507V29.2501C230.299 29.4185 230.265 29.5852 230.199 29.7402C230.133 29.8952 230.036 30.0352 229.915 30.1519C229.794 30.2687 229.65 30.3597 229.492 30.4194C229.335 30.4792 229.167 30.5066 228.999 30.4998H225.2C224.877 30.4869 224.572 30.3496 224.348 30.1166C224.124 29.8836 224 29.5731 224 29.2501V26.2507C224 25.9193 224.132 25.6014 224.366 25.367C224.6 25.1327 224.918 25.001 225.25 25.001ZM225.25 29.2501H228.999V26.2507H225.2L225.25 29.2501ZM227.629 36.7485C227.933 36.7709 228.234 36.6737 228.467 36.4776C228.701 36.2815 228.848 36.002 228.879 35.6987H230.129C230.1 36.3344 229.821 36.9329 229.353 37.3637C228.885 37.7945 228.265 38.0226 227.629 37.9982C226.993 38.0226 226.374 37.7945 225.905 37.3637C225.437 36.9329 225.158 36.3344 225.13 35.6987H226.379C226.407 36.0031 226.554 36.2841 226.788 36.4807C227.022 36.6772 227.325 36.7735 227.629 36.7485Z" fill="white"/>
<circle cx="318.5" cy="31.5" r="14.5" fill="#AEA8A9"/>
<path d="M142.385 36C142.793 36 143.184 35.8379 143.473 35.5494C143.761 35.2609 143.923 34.8696 143.923 34.4615C143.923 34.0535 143.761 33.6622 143.473 33.3737C143.184 33.0852 142.793 32.9231 142.385 32.9231C141.977 32.9231 141.585 33.0852 141.297 33.3737C141.008 33.6622 140.846 34.0535 140.846 34.4615C140.846 34.8696 141.008 35.2609 141.297 35.5494C141.585 35.8379 141.977 36 142.385 36ZM150.077 36C150.485 36 150.876 35.8379 151.165 35.5494C151.453 35.2609 151.615 34.8696 151.615 34.4615C151.615 34.0535 151.453 33.6622 151.165 33.3737C150.876 33.0852 150.485 32.9231 150.077 32.9231C149.669 32.9231 149.278 33.0852 148.989 33.3737C148.701 33.6622 148.538 34.0535 148.538 34.4615C148.538 34.8696 148.701 35.2609 148.989 35.5494C149.278 35.8379 149.669 36 150.077 36Z" stroke="white" stroke-width="1.5" stroke-miterlimit="1.5" stroke-linecap="round" stroke-linejoin="round"/>
<path d="M143.962 34.4615H147.769V26.4615C147.769 26.3391 147.721 26.2217 147.634 26.1352C147.547 26.0486 147.43 26 147.308 26H137M140.577 34.4615H139C138.939 34.4615 138.879 34.4496 138.823 34.4264C138.767 34.4032 138.717 34.3692 138.674 34.3264C138.631 34.2835 138.597 34.2326 138.574 34.1766C138.55 34.1206 138.538 34.0606 138.538 34V30.2308" stroke="white" stroke-width="1.5" stroke-linecap="round"/>
<path d="M137.769 28.3077H140.846" stroke="white" stroke-width="1.5" stroke-linecap="round" stroke-linejoin="round"/>
<path d="M147.769 28.3077H152.085C152.174 28.3077 152.261 28.3336 152.336 28.3822C152.411 28.4308 152.47 28.5 152.506 28.5815L153.883 31.68C153.909 31.7388 153.923 31.8025 153.923 31.8669V34C153.923 34.0606 153.911 34.1206 153.888 34.1766C153.865 34.2326 153.831 34.2835 153.788 34.3263C153.745 34.3692 153.694 34.4032 153.638 34.4264C153.582 34.4496 153.522 34.4615 153.462 34.4615H152M147.769 34.4615H148.539" stroke="white" stroke-width="1.5" stroke-linecap="round"/>
<circle cx="57.5" cy="31.5" r="17.5" fill="url(#paint3_linear_20_430)"/>
<circle cx="57.5" cy="31.5" r="14.5" fill="#EA92AA"/>
<path d="M57.1111 37.6825V31.5175L51.7778 28.39V34.555L57.1111 37.6825ZM58.8889 37.6825L64.2222 34.555V28.39L58.8889 31.5175V37.6825ZM57.1111 39.7525L50.8889 36.13C50.6074 35.965 50.389 35.7475 50.2338 35.4775C50.0785 35.2075 50.0006 34.9075 50 34.5775V27.4225C50 27.0925 50.0779 26.7925 50.2338 26.5225C50.3896 26.2525 50.608 26.035 50.8889 25.87L57.1111 22.2475C57.3926 22.0825 57.6889 22 58 22C58.3111 22 58.6074 22.0825 58.8889 22.2475L65.1111 25.87C65.3926 26.035 65.6113 26.2525 65.7671 26.5225C65.923 26.7925 66.0006 27.0925 66 27.4225V34.5775C66 34.9075 65.9224 35.2075 65.7671 35.4775C65.6118 35.7475 65.3932 35.965 65.1111 36.13L58.8889 39.7525C58.6074 39.9175 58.3111 40 58 40C57.6889 40 57.3926 39.9175 57.1111 39.7525ZM61.5556 27.8725L63.2667 26.8825L58 23.8L56.2667 24.8125L61.5556 27.8725ZM58 29.965L59.7333 28.9525L54.4667 25.87L52.7333 26.8825L58 29.965Z" fill="white"/>
<path d="M314.2 31.4L317.8 34.4L322.6 28.4M318.4 39.8C317.297 39.8 316.205 39.5827 315.185 39.1606C314.166 38.7384 313.24 38.1197 312.46 37.3397C311.68 36.5597 311.062 35.6337 310.639 34.6145C310.217 33.5954 310 32.5031 310 31.4C310 30.2969 310.217 29.2046 310.639 28.1855C311.062 27.1663 311.68 26.2403 312.46 25.4603C313.24 24.6803 314.166 24.0616 315.185 23.6394C316.205 23.2173 317.297 23 318.4 23C320.628 23 322.764 23.885 324.34 25.4603C325.915 27.0356 326.8 29.1722 326.8 31.4C326.8 33.6278 325.915 35.7644 324.34 37.3397C322.764 38.915 320.628 39.8 318.4 39.8Z" stroke="white" stroke-width="1.5"/>
<defs>
<linearGradient id="paint0_linear_20_430" x1="144.5" y1="14" x2="144.5" y2="49" gradientUnits="userSpaceOnUse">
<stop stop-color="#DF6389" stop-opacity="0.35"/>
<stop offset="1" stop-color="#DF6389" stop-opacity="0"/>
</linearGradient>
<linearGradient id="paint1_linear_20_430" x1="231.5" y1="14" x2="231.5" y2="49" gradientUnits="userSpaceOnUse">
<stop stop-color="#DF6389" stop-opacity="0.35"/>
<stop offset="1" stop-color="#DF6389" stop-opacity="0"/>
</linearGradient>
<linearGradient id="paint2_linear_20_430" x1="318.5" y1="14" x2="318.5" y2="49" gradientUnits="userSpaceOnUse">
<stop stop-color="#2C292A" stop-opacity="0.35"/>
<stop offset="1" stop-color="#DF6389" stop-opacity="0"/>
</linearGradient>
<linearGradient id="paint3_linear_20_430" x1="57.5" y1="14" x2="57.5" y2="49" gradientUnits="userSpaceOnUse">
<stop stop-color="#DF6389" stop-opacity="0.35"/>
<stop offset="1" stop-color="#DF6389" stop-opacity="0"/>
</linearGradient>
</defs>
</svg>
