<svg width="154" height="180" viewBox="0 0 154 180" fill="none" xmlns="http://www.w3.org/2000/svg">
<g clip-path="url(#clip0_61_395)">
<g clip-path="url(#clip1_61_395)">
<path d="M89.9232 7H29.4818C20.0813 7 12.4607 14.6408 12.4607 24.0662V162.548C12.4607 171.973 20.0813 179.614 29.4818 179.614H89.9232C99.3237 179.614 106.944 171.973 106.944 162.548V24.0662C106.944 14.6408 99.3237 7 89.9232 7Z" fill="#3F3D56"/>
<path d="M105.35 24.0673V162.548C105.346 166.649 103.719 170.58 100.826 173.48C97.9343 176.38 94.013 178.011 89.9228 178.016H29.4824C25.3922 178.011 21.4709 176.38 18.5787 173.48C15.6865 170.58 14.0596 166.649 14.0549 162.548V24.0673C14.0596 19.9663 15.6865 16.0346 18.5787 13.1348C21.4709 10.2349 25.3922 8.60369 29.4824 8.59894H37.3859V11.3364C37.386 12.5756 37.877 13.7641 38.751 14.6404C39.625 15.5167 40.8104 16.0091 42.0464 16.0091H77.3588C78.5948 16.0091 79.7802 15.5167 80.6542 14.6404C81.5282 13.7641 82.0192 12.5756 82.0193 11.3364V8.59894H89.9228C94.013 8.60369 97.9343 10.2349 100.826 13.1348C103.719 16.0346 105.346 19.9663 105.35 24.0673Z" fill="white"/>
<path d="M12.026 42.0168C11.7186 42.0164 11.4239 41.8938 11.2066 41.6759C10.9893 41.458 10.867 41.1626 10.8667 40.8544V38.5296C10.8667 38.2213 10.9888 37.9257 11.2062 37.7077C11.4236 37.4897 11.7185 37.3672 12.026 37.3672C12.3334 37.3672 12.6283 37.4897 12.8457 37.7077C13.0631 37.9257 13.1853 38.2213 13.1853 38.5296V40.8544C13.1849 41.1626 13.0627 41.458 12.8453 41.6759C12.628 41.8938 12.3333 42.0164 12.026 42.0168Z" fill="#3F3D56"/>
<path d="M12.026 53.9374C11.7186 53.9371 11.4239 53.8145 11.2066 53.5966C10.9893 53.3787 10.867 53.0832 10.8667 52.775V46.3757C10.8667 46.0674 10.9888 45.7718 11.2062 45.5538C11.4236 45.3358 11.7185 45.2133 12.026 45.2133C12.3334 45.2133 12.6283 45.3358 12.8457 45.5538C13.0631 45.7718 13.1853 46.0674 13.1853 46.3757V52.775C13.1849 53.0832 13.0627 53.3787 12.8453 53.5966C12.628 53.8145 12.3333 53.9371 12.026 53.9374Z" fill="#3F3D56"/>
<path d="M12.026 63.5208C11.7186 63.5205 11.4239 63.3979 11.2066 63.18C10.9893 62.9621 10.867 62.6666 10.8667 62.3584V55.9591C10.8667 55.6508 10.9888 55.3552 11.2062 55.1372C11.4236 54.9192 11.7185 54.7967 12.026 54.7967C12.3334 54.7967 12.6283 54.9192 12.8457 55.1372C13.0631 55.3552 13.1853 55.6508 13.1853 55.9591V62.3584C13.1849 62.6666 13.0627 62.9621 12.8453 63.18C12.628 63.3979 12.3333 63.5205 12.026 63.5208Z" fill="#3F3D56"/>
<path d="M107.089 58.2901C106.782 58.2897 106.487 58.1672 106.27 57.9493C106.052 57.7313 105.93 57.4359 105.93 57.1277V41.513C105.93 41.2047 106.052 40.9091 106.269 40.6911C106.487 40.4731 106.782 40.3506 107.089 40.3506C107.397 40.3506 107.691 40.4731 107.909 40.6911C108.126 40.9091 108.248 41.2047 108.248 41.513V57.1277C108.248 57.4359 108.126 57.7313 107.909 57.9493C107.691 58.1672 107.397 58.2897 107.089 58.2901Z" fill="#3F3D56"/>
<path d="M62.1928 12.3312H53.2082C53.016 12.3312 52.8317 12.2547 52.6958 12.1184C52.56 11.9822 52.4836 11.7974 52.4836 11.6047C52.4836 11.412 52.56 11.2273 52.6958 11.091C52.8317 10.9548 53.016 10.8782 53.2082 10.8782H62.1928C62.385 10.8782 62.5693 10.9548 62.7052 11.091C62.8411 11.2273 62.9174 11.412 62.9174 11.6047C62.9174 11.7974 62.8411 11.9822 62.7052 12.1184C62.5693 12.2547 62.385 12.3312 62.1928 12.3312Z" fill="white"/>
<path d="M66.8301 12.1859C67.1502 12.1859 67.4097 11.9257 67.4097 11.6047C67.4097 11.2837 67.1502 11.0235 66.8301 11.0235C66.5099 11.0235 66.2504 11.2837 66.2504 11.6047C66.2504 11.9257 66.5099 12.1859 66.8301 12.1859Z" fill="white"/>
<path d="M33.9328 15.4485H26.1075C25.7231 15.4485 25.3545 15.2954 25.0828 15.0229C24.811 14.7504 24.6583 14.3809 24.6583 13.9955C24.6583 13.6102 24.811 13.2406 25.0828 12.9681C25.3545 12.6956 25.7231 12.5425 26.1075 12.5425H33.9328C34.3171 12.5425 34.6857 12.6956 34.9575 12.9681C35.2292 13.2406 35.3819 13.6102 35.3819 13.9955C35.3819 14.3809 35.2292 14.7504 34.9575 15.0229C34.6857 15.2954 34.3171 15.4485 33.9328 15.4485Z" fill="#E6E6E6"/>
<path d="M63.6153 76.3637H55.7899C55.4056 76.3637 55.037 76.2106 54.7652 75.9382C54.4935 75.6657 54.3408 75.2961 54.3408 74.9107C54.3408 74.5254 54.4935 74.1558 54.7652 73.8833C55.037 73.6108 55.4056 73.4578 55.7899 73.4578H63.6153C63.9996 73.4578 64.3682 73.6108 64.64 73.8833C64.9117 74.1558 65.0644 74.5254 65.0644 74.9107C65.0644 75.2961 64.9117 75.6657 64.64 75.9382C64.3682 76.2106 63.9996 76.3637 63.6153 76.3637Z" fill="#E6E6E6"/>
<path d="M85.2321 15.3032C85.9524 15.3032 86.5364 14.7177 86.5364 13.9955C86.5364 13.2733 85.9524 12.6878 85.2321 12.6878C84.5118 12.6878 83.9279 13.2733 83.9279 13.9955C83.9279 14.7177 84.5118 15.3032 85.2321 15.3032Z" fill="#E6E6E6"/>
<path d="M89.2897 15.3032C90.01 15.3032 90.5939 14.7177 90.5939 13.9955C90.5939 13.2733 90.01 12.6878 89.2897 12.6878C88.5694 12.6878 87.9855 13.2733 87.9855 13.9955C87.9855 14.7177 88.5694 15.3032 89.2897 15.3032Z" fill="#E6E6E6"/>
<path d="M93.3473 15.3032C94.0676 15.3032 94.6515 14.7177 94.6515 13.9955C94.6515 13.2733 94.0676 12.6878 93.3473 12.6878C92.627 12.6878 92.0431 13.2733 92.0431 13.9955C92.0431 14.7177 92.627 15.3032 93.3473 15.3032Z" fill="#E6E6E6"/>
<path d="M84.7154 96.7054H30.5953C29.2019 96.7038 27.866 96.1481 26.8807 95.1602C25.8954 94.1723 25.3412 92.8329 25.3396 91.4358V85.9922C25.3412 84.5951 25.8954 83.2557 26.8807 82.2678C27.866 81.2799 29.2019 80.7242 30.5953 80.7226H84.7154C86.1088 80.7242 87.4447 81.2799 88.4299 82.2678C89.4152 83.2557 89.9695 84.5951 89.971 85.9922V91.4358C89.9695 92.8329 89.4152 94.1723 88.4299 95.1602C87.4447 96.1481 86.1088 96.7038 84.7154 96.7054ZM30.5953 81.3038C29.3556 81.3053 28.1671 81.7997 27.2904 82.6786C26.4138 83.5575 25.9207 84.7492 25.9193 85.9922V91.4358C25.9207 92.6788 26.4138 93.8705 27.2904 94.7494C28.1671 95.6284 29.3556 96.1228 30.5953 96.1242H84.7154C85.9551 96.1228 87.1436 95.6284 88.0203 94.7495C88.8969 93.8705 89.39 92.6788 89.3914 91.4358V85.9922C89.39 84.7492 88.8969 83.5575 88.0203 82.6786C87.1436 81.7996 85.9551 81.3052 84.7154 81.3038H30.5953Z" fill="#E6E6E6"/>
<path d="M63.6153 116.756H55.7899C55.4056 116.756 55.037 116.603 54.7652 116.331C54.4935 116.058 54.3408 115.689 54.3408 115.304C54.3408 114.918 54.4935 114.549 54.7652 114.276C55.037 114.004 55.4056 113.851 55.7899 113.851H63.6153C63.9996 113.851 64.3682 114.004 64.64 114.276C64.9117 114.549 65.0644 114.918 65.0644 115.304C65.0644 115.689 64.9117 116.058 64.64 116.331C64.3682 116.603 63.9996 116.756 63.6153 116.756Z" fill="#E6E6E6"/>
<path d="M65.413 158.893H53.9922C53.7143 158.893 53.439 158.839 53.1821 158.732C52.9252 158.626 52.6918 158.47 52.4952 158.273C52.2985 158.076 52.1425 157.842 52.036 157.584C51.9296 157.327 51.8748 157.051 51.8748 156.772C51.8748 156.494 51.9296 156.218 52.036 155.96C52.1425 155.703 52.2985 155.469 52.4952 155.272C52.6918 155.075 52.9252 154.919 53.1821 154.812C53.439 154.706 53.7143 154.651 53.9922 154.652H65.413C65.9739 154.652 66.5119 154.875 66.9085 155.273C67.3051 155.67 67.5279 156.21 67.5279 156.772C67.5279 157.335 67.3051 157.874 66.9085 158.272C66.5119 158.669 65.9739 158.893 65.413 158.893Z" fill="url(#paint0_linear_61_395)"/>
<path d="M84.7154 137.098H30.5953C29.2019 137.097 27.866 136.541 26.8807 135.553C25.8954 134.565 25.3412 133.226 25.3396 131.829V126.385C25.3412 124.988 25.8954 123.648 26.8807 122.661C27.866 121.673 29.2019 121.117 30.5953 121.115H84.7154C86.1088 121.117 87.4447 121.673 88.4299 122.661C89.4152 123.648 89.9695 124.988 89.971 126.385V131.829C89.9695 133.226 89.4152 134.565 88.4299 135.553C87.4447 136.541 86.1088 137.097 84.7154 137.098ZM30.5953 121.697C29.3556 121.698 28.1671 122.192 27.2904 123.071C26.4138 123.95 25.9207 125.142 25.9193 126.385V131.829C25.9207 133.072 26.4138 134.263 27.2904 135.142C28.1671 136.021 29.3556 136.516 30.5953 136.517H84.7154C85.9551 136.516 87.1436 136.021 88.0203 135.142C88.8969 134.263 89.39 133.072 89.3914 131.829V126.385C89.39 125.142 88.8969 123.95 88.0203 123.071C87.1436 122.192 85.9551 121.698 84.7154 121.697H30.5953Z" fill="#E6E6E6"/>
<path d="M94.6515 63.2303H24.6583V63.8114H94.6515V63.2303Z" fill="#E6E6E6"/>
<path d="M94.9932 54H25V54.5812H94.9932V54Z" fill="#E6E6E6"/>
<path d="M92.8312 86.2933C92.8992 86.7791 93.1536 87.2191 93.5403 87.5197C93.9269 87.8202 94.4152 87.9577 94.9014 87.9027C95 87.89 95.0975 87.8691 95.1927 87.8403L99.0864 93.1239L102.456 92.0862L96.3411 85.4265C96.1912 85.0399 95.918 84.7139 95.5639 84.4995C95.2099 84.285 94.795 84.1941 94.384 84.2409C94.1504 84.2698 93.9248 84.3445 93.72 84.4608C93.5152 84.5771 93.3352 84.7328 93.1904 84.9188C93.0456 85.1049 92.9388 85.3177 92.876 85.5451C92.8132 85.7726 92.7957 86.0102 92.8245 86.2444C92.8265 86.2608 92.8287 86.2771 92.8312 86.2933Z" fill="#FFB6B6"/>
<path d="M141.83 123.389C141.482 123.044 141.282 122.576 141.273 122.086C141.263 121.595 141.445 121.121 141.78 120.763C141.849 120.691 141.924 120.625 142.004 120.566L140.105 114.278L142.948 112.19L144.62 121.085C144.84 121.436 144.937 121.851 144.897 122.263C144.857 122.676 144.682 123.064 144.399 123.367C144.236 123.537 144.042 123.674 143.826 123.769C143.611 123.864 143.379 123.916 143.144 123.921C142.908 123.926 142.674 123.885 142.455 123.8C142.235 123.714 142.035 123.586 141.865 123.423C141.853 123.412 141.841 123.4 141.83 123.389Z" fill="#FFB6B6"/>
<path d="M125.716 176.251L122.846 176.251L121.481 165.153L125.716 165.153L125.716 176.251Z" fill="#FFB6B6"/>
<path d="M125.817 179.253L116.992 179.252V179.141C116.992 178.227 117.354 177.351 117.998 176.706C118.643 176.06 119.516 175.697 120.427 175.697L122.039 174.471L125.047 175.697L125.817 175.697L125.817 179.253Z" fill="#2F2E41"/>
<path d="M138.178 176.251L135.309 176.251L133.944 165.153L138.179 165.153L138.178 176.251Z" fill="#FFB6B6"/>
<path d="M138.279 179.253L129.455 179.252V179.141C129.455 178.227 129.817 177.351 130.461 176.706C131.105 176.06 131.979 175.697 132.89 175.697L134.502 174.471L137.509 175.697L138.279 175.697L138.279 179.253Z" fill="#2F2E41"/>
<path d="M117.215 116.599C117.215 116.599 113.948 121.165 116.306 129.053C118.664 136.941 117.34 143.993 118.002 145.407C118.664 146.821 119.996 148.164 118.895 149.236C117.794 150.308 117.215 151.18 118.084 151.47C118.954 151.761 121.852 172.103 121.852 172.103L126.779 172.393C126.779 172.393 128.564 162.944 126.657 155.318C126.657 155.318 127.076 149.782 126.203 148.156C125.33 146.53 125.501 147.997 125.56 145.956C125.593 144.48 125.808 143.013 126.199 141.59C126.489 140.428 126.657 128.712 126.657 128.712L133.062 143.184C133.255 143.719 133.327 144.291 133.274 144.858C133.155 145.658 133.154 146.855 133.3 147.274C133.445 147.693 133.607 147.781 133.526 148.608C133.445 149.436 133.445 171.388 133.445 171.388H138.952L141.56 149.436C141.091 148.915 140.7 148.327 140.401 147.693C139.821 146.53 139.799 146.466 140.1 145.626C140.401 144.787 140.401 143.151 140.401 142.661C140.401 142.171 140.702 119.942 136.929 116.672C133.155 113.402 117.215 116.599 117.215 116.599Z" fill="url(#paint1_linear_61_395)"/>
<path d="M134.125 81.7026L128.624 80.2734L126.056 76.7223L119.958 77.474L118.66 82.3177L114.318 84.8444C114.318 84.8444 116.718 110.292 116.147 111.69C115.576 113.087 113.53 112.972 115.277 114.773C117.025 116.574 117.257 115.849 116.851 117.81C116.446 119.771 113.489 121.846 116.851 121.825C120.213 121.805 140.501 121.514 139.922 119.189C139.342 116.865 139.351 117.455 138.477 115.997C137.603 114.54 137.015 115.354 137.309 113.204C137.603 111.053 137.313 109.6 137.313 108.437C137.313 107.275 136.342 96.7123 136.342 96.7123L134.125 81.7026Z" fill="#275259"/>
<path d="M116.961 84.3562C116.961 84.3562 111.519 83.7368 110.359 86.3522C109.2 88.9675 106.278 94.4133 106.278 94.4133C106.278 94.4133 104.001 92.024 103.78 90.9411C103.593 90.0217 103.49 91.5575 101.96 89.895C101.274 89.1499 101.854 89.1499 100.984 88.8593L99.2455 88.2781L96.3472 90.8935C96.3472 90.8935 96.2905 94.0534 97.7963 94.0901C99.3021 94.1267 97.2167 93.5089 99.2455 95.543C100.293 96.5934 99.3322 96.4193 101.078 97.4882C102.824 98.5572 102.627 98.5526 103.16 99.1361C103.693 99.7196 106.555 100.144 106.555 100.144L119.371 93.0334L116.961 84.3562Z" fill="#275259"/>
<path d="M131.265 82.8021C131.265 82.8021 133.599 79.3735 137.588 83.8278C141.577 88.2822 144.56 108.617 144.373 109.347C144.185 110.077 143.133 109.658 144.384 110.885C145.635 112.111 146.504 111.239 145.635 112.111C144.765 112.983 142.95 113.803 144.437 114.12C145.924 114.436 140.14 116.177 140.14 116.177C140.14 116.177 139.297 115.868 139.262 113.832C139.242 112.688 139.821 112.107 138.952 111.816C138.082 111.526 139.151 109.585 139.06 109.25C138.969 108.914 133.462 94.0941 133.462 94.0941L131.265 82.8021Z" fill="#275259"/>
<path d="M122.092 76.1145C125.782 76.1145 128.774 73.1149 128.774 69.4146C128.774 65.7144 125.782 62.7147 122.092 62.7147C118.401 62.7147 115.409 65.7144 115.409 69.4146C115.409 73.1149 118.401 76.1145 122.092 76.1145Z" fill="#FFB6B6"/>
<path d="M126.489 74.6201C124.91 73.3822 127.069 67.9364 124.46 69.0988C124.46 69.0988 121.272 67.0646 120.632 68.4014C119.89 69.9492 117.252 69.247 115.632 68.7007C115.76 68.4039 115.85 68.0926 115.902 67.7737C115.603 68.01 115.286 68.2227 114.954 68.4101C114.732 68.2909 114.535 68.129 114.374 67.9335C114.216 67.752 114.118 67.5264 114.091 67.2869C114.065 67.0475 114.112 66.8056 114.227 66.5939C114.496 66.1783 115.053 66.0505 115.38 65.6814C115.418 65.6295 115.443 65.5692 115.452 65.5056C115.462 65.442 115.456 65.3771 115.435 65.3164C115.396 65.1679 115.39 65.0126 115.417 64.8616C115.445 64.7105 115.505 64.5675 115.595 64.4426C115.684 64.3177 115.799 64.214 115.933 64.139C116.066 64.064 116.215 64.0195 116.368 64.0086C116.429 64.0104 116.49 63.9971 116.545 63.9698C116.82 63.8011 117.074 63.6001 117.302 63.3712C116.921 63.3896 116.539 63.3789 116.16 63.3392C116.082 63.3305 116.003 63.3218 115.925 63.3102C116.07 62.9691 116.287 62.6636 116.56 62.4143C116.834 62.165 117.158 61.978 117.51 61.8659C118.254 61.6404 119.029 61.5316 119.806 61.5433C120.255 61.5288 120.704 61.5143 121.151 61.4997C122.097 61.4322 123.048 61.4653 123.988 61.5985C124.992 61.7822 125.943 62.1858 126.773 62.7805C127.603 63.3753 128.292 64.1466 128.79 65.0392C129.773 66.8264 130.837 72.586 126.489 74.6201Z" fill="#2F2E41"/>
<path d="M109.438 106.168L74.9918 118.379C74.1402 118.68 73.2042 118.63 72.3894 118.24C71.5746 117.85 70.9474 117.151 70.6455 116.298L64.7282 99.5173C64.4281 98.6634 64.4782 97.725 64.8673 96.908C65.2565 96.091 65.9529 95.4622 66.8039 95.1594L101.25 82.9485C102.101 82.6476 103.037 82.6978 103.852 83.088C104.667 83.4782 105.294 84.1765 105.596 85.0297L111.513 101.81C111.813 102.664 111.763 103.603 111.374 104.42C110.985 105.237 110.289 105.866 109.438 106.168Z" fill="url(#paint2_linear_61_395)"/>
<path d="M72.8422 99.0556C70.559 100.562 67.6327 99.4283 66.6093 97.777L66.7725 97.684C68.7163 96.4692 71.6029 97.1461 72.8422 99.0556Z" fill="white"/>
<path d="M101.455 103.329C101.217 103.428 100.961 103.477 100.704 103.473C100.446 103.468 100.193 103.41 99.9587 103.302C98.9785 102.814 98.5185 101.366 98.1489 100.203C98.0414 99.864 97.9398 99.5443 97.8364 99.283L97.8349 99.279C97.6549 98.7606 97.6863 98.1919 97.9221 97.6966C98.1579 97.2012 98.5791 96.8191 99.0942 96.6333L103.727 94.9909C103.965 94.892 104.22 94.8433 104.477 94.8479C104.734 94.8525 104.988 94.9103 105.222 95.0177C106.202 95.5054 106.662 96.9529 107.032 98.116C107.14 98.4552 107.242 98.7755 107.345 99.0373C107.526 99.5562 107.496 100.126 107.26 100.622C107.024 101.118 106.602 101.501 106.087 101.687L101.455 103.329Z" fill="white"/>
<path d="M73.0632 107.951C72.9806 107.983 72.8906 107.993 72.803 107.978C72.7153 107.964 72.6333 107.926 72.5656 107.868C72.4865 107.798 72.4265 107.71 72.3914 107.61C72.3563 107.511 72.3474 107.404 72.3654 107.3C72.3821 107.211 72.4232 107.128 72.4841 107.061C72.545 106.993 72.6232 106.944 72.7103 106.919L74.4736 106.294C74.5573 106.259 74.649 106.248 74.7384 106.262C74.8279 106.276 74.9118 106.315 74.9808 106.374C75.0599 106.443 75.1198 106.532 75.1549 106.631C75.1899 106.73 75.1988 106.837 75.1808 106.941C75.1637 107.03 75.1225 107.113 75.0616 107.18C75.0008 107.247 74.9227 107.296 74.8358 107.322L73.0724 107.947L73.0632 107.951Z" fill="white"/>
<path d="M72.1267 111.962C71.9718 111.991 71.8121 111.977 71.6646 111.922C71.5171 111.867 71.3874 111.772 71.2894 111.649C71.1752 111.501 71.1009 111.326 71.0736 111.142C71.0463 110.957 71.0669 110.768 71.1335 110.594C71.1929 110.444 71.2925 110.314 71.4212 110.217C71.5499 110.121 71.7027 110.062 71.8627 110.047L78.431 107.837C78.5884 107.805 78.7515 107.818 78.9023 107.873C79.0532 107.928 79.1859 108.023 79.286 108.149C79.4 108.297 79.4742 108.472 79.5014 108.656C79.5287 108.841 79.508 109.03 79.4414 109.204C79.3815 109.353 79.2818 109.483 79.1531 109.58C79.0245 109.676 78.872 109.735 78.7122 109.75L72.1438 111.96L72.1267 111.962Z" fill="white"/>
<path d="M106.885 88.6826L66.1333 103.129L66.2021 103.324L106.953 88.8777L106.885 88.6826Z" fill="white"/>
<path d="M100.405 99.9019C101.045 99.9019 101.564 99.3815 101.564 98.7396C101.564 98.0976 101.045 97.5772 100.405 97.5772C99.7645 97.5772 99.2455 98.0976 99.2455 98.7396C99.2455 99.3815 99.7645 99.9019 100.405 99.9019Z" fill="#F25482"/>
<path d="M104.173 100.193C104.653 100.193 105.042 99.8022 105.042 99.3208C105.042 98.8393 104.653 98.449 104.173 98.449C103.692 98.449 103.303 98.8393 103.303 99.3208C103.303 99.8022 103.692 100.193 104.173 100.193Z" fill="#F25482"/>
<path d="M-33 179.654C-33.0001 179.7 -32.9913 179.745 -32.974 179.787C-32.9567 179.829 -32.9313 179.867 -32.8993 179.899C-32.8672 179.931 -32.8291 179.957 -32.7872 179.974C-32.7453 179.991 -32.7004 180 -32.6551 180H174.655C174.747 180 174.834 179.964 174.899 179.899C174.964 179.834 175 179.746 175 179.654C175 179.562 174.964 179.475 174.899 179.41C174.834 179.345 174.747 179.308 174.655 179.308H-32.6551C-32.7004 179.308 -32.7453 179.317 -32.7872 179.334C-32.8291 179.352 -32.8672 179.377 -32.8993 179.409C-32.9313 179.442 -32.9567 179.48 -32.974 179.522C-32.9913 179.564 -33.0001 179.609 -33 179.654Z" fill="#CCCCCC"/>
<path d="M39.0667 172.161C38.9 172.168 38.7351 172.125 38.5941 172.035C38.4531 171.946 38.343 171.815 38.2787 171.661C38.2143 171.506 38.1988 171.336 38.2343 171.172C38.2698 171.009 38.3545 170.86 38.477 170.747L38.5328 170.525C38.5254 170.507 38.518 170.489 38.5106 170.471C38.3427 170.074 38.0614 169.735 37.7019 169.497C37.3425 169.259 36.921 169.133 36.4904 169.135C36.0597 169.136 35.6392 169.265 35.2815 169.506C34.9238 169.746 34.645 170.087 34.4801 170.486C33.8209 172.078 32.9816 173.673 32.7749 175.356C32.6839 176.1 32.7223 176.854 32.8884 177.585C31.3401 174.199 30.5361 170.518 30.5309 166.793C30.5306 165.858 30.5824 164.924 30.686 163.995C30.7717 163.233 30.8906 162.477 31.0427 161.726C31.8726 157.653 33.6543 153.835 36.2416 150.586C37.4939 149.9 38.5066 148.847 39.1433 147.567C39.374 147.107 39.537 146.616 39.6274 146.109C39.4861 146.127 39.0947 143.97 39.2013 143.838C39.0044 143.538 38.652 143.39 38.437 143.097C37.3677 141.644 35.8945 141.897 35.1254 143.873C33.4825 144.704 33.4666 146.083 34.4747 147.409C35.1161 148.253 35.2042 149.394 35.7669 150.298C35.709 150.372 35.6488 150.444 35.5909 150.518C34.5326 151.883 33.6102 153.348 32.8369 154.893C33.025 153.162 32.8005 151.411 32.1821 149.784C31.5553 148.268 30.3804 146.991 29.3458 145.681C28.1031 144.106 25.5548 144.794 25.3358 146.789C25.3337 146.809 25.3317 146.828 25.3296 146.847C25.4833 146.934 25.6337 147.026 25.7809 147.124C25.9658 147.248 26.1091 147.425 26.192 147.632C26.2748 147.839 26.2934 148.066 26.2453 148.283C26.1972 148.501 26.0847 148.699 25.9224 148.852C25.7601 149.004 25.5557 149.104 25.3359 149.138L25.3134 149.141C25.3682 149.697 25.4649 150.247 25.6029 150.788C24.2756 155.934 27.1411 157.808 31.2326 157.893C31.3229 157.939 31.4109 157.986 31.5012 158.03C30.7243 160.237 30.237 162.537 30.0516 164.87C29.9465 166.247 29.9527 167.63 30.0701 169.005L30.0631 168.957C29.7667 167.427 28.9528 166.047 27.7589 165.049C25.9857 163.588 23.4804 163.051 21.5674 161.877C21.3641 161.746 21.1277 161.676 20.8861 161.675C20.6445 161.675 20.4078 161.743 20.2039 161.873C19.9999 162.003 19.8373 162.189 19.7351 162.408C19.633 162.628 19.5955 162.872 19.6273 163.112C19.6298 163.129 19.6325 163.146 19.6351 163.163C19.9203 163.28 20.1979 163.414 20.4665 163.565C20.6201 163.652 20.7706 163.744 20.9177 163.842C21.1026 163.966 21.2459 164.143 21.3288 164.35C21.4116 164.557 21.4302 164.784 21.3821 165.001C21.334 165.219 21.2215 165.417 21.0592 165.57C20.8969 165.722 20.6925 165.822 20.4728 165.856L20.4502 165.859C20.434 165.862 20.4201 165.864 20.4039 165.866C20.8912 167.033 21.5751 168.106 22.4256 169.04C23.2555 173.533 26.82 173.959 30.6328 172.651H30.6351C31.0535 174.474 31.6596 176.248 32.4438 177.945H38.9048C38.928 177.873 38.9488 177.799 38.9697 177.727C38.3716 177.764 37.7712 177.728 37.1819 177.62C37.6612 177.03 38.1406 176.436 38.62 175.846C38.6307 175.835 38.6407 175.823 38.6501 175.811C38.8933 175.509 39.1387 175.21 39.3819 174.908L39.382 174.907C39.395 173.982 39.2888 173.059 39.0667 172.161Z" fill="url(#paint3_linear_61_395)" fill-opacity="0.5"/>
<path d="M35.7722 39H36.9522V46H35.7722V39ZM36.4722 40.04V39H37.8822C38.3889 39 38.8289 39.09 39.2022 39.27C39.5822 39.4433 39.8755 39.6933 40.0822 40.02C40.2889 40.34 40.3922 40.7233 40.3922 41.17C40.3922 41.6167 40.2889 42.0033 40.0822 42.33C39.8755 42.6567 39.5822 42.91 39.2022 43.09C38.8289 43.2633 38.3889 43.35 37.8822 43.35H36.4722V42.31H37.8822C38.2889 42.31 38.6155 42.2133 38.8622 42.02C39.1089 41.8267 39.2322 41.5433 39.2322 41.17C39.2322 40.7967 39.1089 40.5167 38.8622 40.33C38.6155 40.1367 38.2889 40.04 37.8822 40.04H36.4722ZM42.1903 44.2L42.4103 43.2H45.6603L45.8903 44.2H42.1903ZM44.0203 40.98L42.9203 43.55L42.9003 43.81L41.9303 46H40.6003L44.0203 38.61L47.4403 46H46.1103L45.1603 43.87L45.1303 43.58L44.0203 40.98ZM51.9015 39H53.2515L50.8715 43.05V46H49.6715V43.06L47.3015 39H48.6415L50.2715 42L51.9015 39ZM63.1654 39H64.3254V46.35L59.2154 41.3V46H58.0554V38.65L63.1654 43.7V39ZM67.2277 42.5C67.2277 42.98 67.3277 43.41 67.5277 43.79C67.7343 44.1633 68.0177 44.4567 68.3777 44.67C68.7377 44.8833 69.1477 44.99 69.6077 44.99C70.0743 44.99 70.4843 44.8833 70.8377 44.67C71.1977 44.4567 71.4777 44.1633 71.6777 43.79C71.8843 43.41 71.9877 42.98 71.9877 42.5C71.9877 42.02 71.8877 41.5933 71.6877 41.22C71.4877 40.84 71.2077 40.5433 70.8477 40.33C70.4943 40.1167 70.081 40.01 69.6077 40.01C69.1477 40.01 68.7377 40.1167 68.3777 40.33C68.0177 40.5433 67.7343 40.84 67.5277 41.22C67.3277 41.5933 67.2277 42.02 67.2277 42.5ZM65.9777 42.5C65.9777 41.9733 66.0677 41.49 66.2477 41.05C66.4277 40.61 66.681 40.23 67.0077 39.91C67.341 39.5833 67.7277 39.33 68.1677 39.15C68.6143 38.97 69.0943 38.88 69.6077 38.88C70.1343 38.88 70.6177 38.97 71.0577 39.15C71.4977 39.33 71.881 39.5833 72.2077 39.91C72.541 40.23 72.7977 40.61 72.9777 41.05C73.1577 41.49 73.2477 41.9733 73.2477 42.5C73.2477 43.02 73.1577 43.5033 72.9777 43.95C72.7977 44.3967 72.5443 44.7833 72.2177 45.11C71.891 45.4367 71.5043 45.6933 71.0577 45.88C70.6177 46.06 70.1343 46.15 69.6077 46.15C69.0877 46.15 68.6043 46.06 68.1577 45.88C67.711 45.6933 67.3243 45.4367 66.9977 45.11C66.6777 44.7833 66.4277 44.3967 66.2477 43.95C66.0677 43.5033 65.9777 43.02 65.9777 42.5ZM80.9225 43.69L82.5625 39H83.9325L81.0725 46.37L78.9125 41.42L76.7525 46.37L73.8925 39H75.2625L76.9225 43.69L78.9125 38.65L80.9225 43.69Z" fill="#275259"/>
</g>
</g>
<defs>
<linearGradient id="paint0_linear_61_395" x1="67.6324" y1="156.752" x2="51.8138" y2="156.752" gradientUnits="userSpaceOnUse">
<stop stop-color="#DE6389"/>
<stop offset="1" stop-color="#EA8FA9" stop-opacity="0.8"/>
</linearGradient>
<linearGradient id="paint1_linear_61_395" x1="116.351" y1="115.2" x2="141.56" y2="115.2" gradientUnits="userSpaceOnUse">
<stop stop-color="#38909E"/>
<stop offset="1" stop-color="#56BBCB"/>
</linearGradient>
<linearGradient id="paint2_linear_61_395" x1="91.5" y1="97.5" x2="64.3506" y2="100.494" gradientUnits="userSpaceOnUse">
<stop stop-color="#DE6389"/>
<stop offset="1" stop-color="#EA8FA9" stop-opacity="0.8"/>
</linearGradient>
<linearGradient id="paint3_linear_61_395" x1="39.7609" y1="159.888" x2="19.5383" y2="159.888" gradientUnits="userSpaceOnUse">
<stop stop-color="#DE6389"/>
<stop offset="1" stop-color="#EA8FA9" stop-opacity="0.8"/>
</linearGradient>
<clipPath id="clip0_61_395">
<rect width="154" height="180" fill="white"/>
</clipPath>
<clipPath id="clip1_61_395">
<rect width="208" height="173" fill="white" transform="translate(-33 7)"/>
</clipPath>
</defs>
</svg>
