<svg width="154" height="180" viewBox="0 0 154 180" fill="none" xmlns="http://www.w3.org/2000/svg">
<path d="M119.92 48.004H118.975V22.0319C118.975 18.0452 117.393 14.2217 114.578 11.4027C111.763 8.58371 107.944 7 103.963 7H49.0116C47.0403 6.99997 45.0883 7.38875 43.267 8.14414C41.4457 8.89953 39.7909 10.0067 38.3969 11.4026C37.003 12.7984 35.8972 14.4555 35.1428 16.2792C34.3883 18.1029 34 20.0576 34 22.0316V164.517C34 168.503 35.5816 172.327 38.3967 175.146C41.2119 177.965 45.0301 179.548 49.0114 179.548H103.962C107.944 179.548 111.762 177.965 114.577 175.146C117.392 172.327 118.974 168.503 118.974 164.517V66.4913H119.919L119.92 48.004Z" fill="#3F3D56" fill-opacity="0.71"/>
<path d="M115.895 21.025V165.523C115.895 168.546 114.696 171.444 112.562 173.582C110.427 175.72 107.533 176.921 104.514 176.922H48.4353C45.4156 176.922 42.5194 175.722 40.3836 173.584C38.2479 171.446 37.0475 168.547 37.0466 165.523V21.025C37.0475 18.0013 38.2478 15.1017 40.3835 12.9641C42.5191 10.8264 45.4152 9.62577 48.4348 9.62616H55.2375C54.9035 10.4487 54.7764 11.3408 54.8673 12.2241C54.9582 13.1074 55.2644 13.9547 55.759 14.6917C56.2536 15.4288 56.9213 16.0328 57.7037 16.4509C58.486 16.8689 59.3589 17.0882 60.2456 17.0893H92.2172C93.1039 17.0882 93.9768 16.8689 94.7591 16.4509C95.5414 16.0328 96.2092 15.4288 96.7038 14.6917C97.1983 13.9547 97.5046 13.1074 97.5955 12.2241C97.6864 11.3408 97.5593 10.4487 97.2253 9.62616H104.512C107.531 9.62667 110.425 10.8275 112.56 12.9646C114.695 15.1017 115.894 18.0002 115.895 21.0228V21.025Z" fill="white"/>
<path d="M80.6153 76.3637H72.7899C72.4056 76.3637 72.037 76.2106 71.7652 75.9382C71.4935 75.6657 71.3408 75.2961 71.3408 74.9107C71.3408 74.5254 71.4935 74.1558 71.7652 73.8833C72.037 73.6108 72.4056 73.4578 72.7899 73.4578H80.6153C80.9996 73.4578 81.3682 73.6108 81.64 73.8833C81.9117 74.1558 82.0644 74.5254 82.0644 74.9107C82.0644 75.2961 81.9117 75.6657 81.64 75.9382C81.3682 76.2106 80.9996 76.3637 80.6153 76.3637Z" fill="#E6E6E6"/>
<path d="M101.715 96.7054H47.5953C46.2019 96.7038 44.866 96.1481 43.8807 95.1602C42.8954 94.1723 42.3412 92.8329 42.3396 91.4358V85.9923C42.3412 84.5952 42.8954 83.2557 43.8807 82.2678C44.866 81.2799 46.2019 80.7242 47.5953 80.7227H101.715C103.109 80.7242 104.445 81.2799 105.43 82.2678C106.415 83.2557 106.969 84.5952 106.971 85.9923V91.4358C106.969 92.8329 106.415 94.1723 105.43 95.1602C104.445 96.1481 103.109 96.7038 101.715 96.7054ZM47.5953 81.3038C46.3556 81.3053 45.1671 81.7997 44.2904 82.6786C43.4138 83.5576 42.9207 84.7492 42.9193 85.9923V91.4358C42.9207 92.6788 43.4138 93.8705 44.2904 94.7494C45.1671 95.6284 46.3556 96.1228 47.5953 96.1242H101.715C102.955 96.1228 104.144 95.6284 105.02 94.7495C105.897 93.8705 106.39 92.6788 106.391 91.4358V85.9923C106.39 84.7492 105.897 83.5575 105.02 82.6786C104.144 81.7997 102.955 81.3052 101.715 81.3038H47.5953Z" fill="#E6E6E6"/>
<path d="M111.651 63.2303H41.6583V63.8114H111.651V63.2303Z" fill="#E6E6E6"/>
<path d="M100.683 137.517L53.6544 137.505C52.4921 137.503 51.3786 137.039 50.5583 136.216C49.7381 135.392 49.2779 134.275 49.2788 133.11L49.323 110.213C49.3265 109.048 49.791 107.932 50.6144 107.109C51.4379 106.285 52.5531 105.822 53.7154 105.821L100.744 105.834C101.907 105.835 103.02 106.299 103.84 107.122C104.661 107.946 105.121 109.063 105.12 110.228L105.076 133.125C105.072 134.29 104.608 135.406 103.784 136.23C102.961 137.053 101.845 137.516 100.683 137.517Z" fill="url(#paint0_linear_61_395)"/>
<path d="M59.3621 113.144C55.9449 113.989 52.8838 111.355 52.3531 108.912L52.591 108.869C55.4711 108.233 58.6807 110.295 59.3621 113.144Z" fill="white"/>
<path d="M92.2231 130.639C91.8921 130.657 91.5612 130.606 91.251 130.489C90.9409 130.373 90.6582 130.194 90.4207 129.962C89.442 128.948 89.5072 126.994 89.5596 125.424C89.5748 124.968 89.5892 124.536 89.5762 124.175L89.5761 124.169C89.5809 123.463 89.8636 122.787 90.3627 122.288C90.8619 121.788 91.5371 121.506 92.2418 121.503L98.5675 121.504C98.8981 121.486 99.2286 121.537 99.5385 121.653C99.8483 121.77 100.131 121.949 100.368 122.18C101.347 123.193 101.282 125.146 101.23 126.716C101.215 127.174 101.201 127.606 101.214 127.968C101.21 128.675 100.928 129.353 100.429 129.853C99.9291 130.354 99.253 130.637 98.5473 130.64L92.2231 130.639Z" fill="white"/>
<path d="M55.8027 124.027C55.6884 124.031 55.5752 124.004 55.4751 123.949C55.3751 123.893 55.2921 123.812 55.2349 123.713C55.1688 123.594 55.1341 123.461 55.1344 123.325C55.1346 123.19 55.1697 123.057 55.2362 122.938C55.2949 122.837 55.3804 122.754 55.4832 122.699C55.586 122.643 55.7021 122.617 55.8187 122.624L58.2262 122.625C58.3426 122.618 58.4585 122.645 58.5609 122.7C58.6634 122.756 58.7484 122.839 58.8068 122.94C58.8729 123.058 58.9074 123.191 58.9072 123.327C58.9069 123.462 58.8718 123.596 58.8052 123.714C58.7462 123.815 58.6606 123.897 58.5579 123.953C58.4552 124.008 58.3393 124.034 58.2229 124.028L55.8153 124.027L55.8027 124.027Z" fill="white"/>
<path d="M52.9407 128.489C52.7406 128.458 52.5528 128.372 52.3977 128.242C52.2426 128.111 52.126 127.941 52.0603 127.749C51.9854 127.52 51.9704 127.277 52.0168 127.041C52.0632 126.805 52.1694 126.585 52.3251 126.402C52.4616 126.246 52.6384 126.131 52.836 126.07C53.0336 126.008 53.2443 126.002 53.4446 126.053L62.3613 126.199C62.5659 126.228 62.7584 126.313 62.9177 126.445C63.077 126.577 63.1968 126.75 63.2639 126.946C63.3387 127.174 63.3536 127.418 63.3071 127.653C63.2606 127.889 63.1543 128.109 62.9985 128.292C62.8617 128.447 62.6848 128.562 62.4875 128.623C62.2901 128.684 62.0797 128.69 61.8795 128.639L52.9627 128.494L52.9407 128.489Z" fill="white"/>
<path d="M105.111 115.212L49.473 115.198L49.4725 115.464L105.11 115.478L105.111 115.212Z" fill="white"/>
<path d="M92.4247 126.03C93.2012 126.306 94.0546 125.898 94.3309 125.12C94.6071 124.341 94.2015 123.487 93.425 123.211C92.6485 122.936 91.7951 123.343 91.5189 124.122C91.2427 124.901 91.6482 125.755 92.4247 126.03Z" fill="#F25482"/>
<path d="M96.8691 128.004C97.4515 128.211 98.0915 127.905 98.2987 127.321C98.5059 126.737 98.2017 126.096 97.6193 125.89C97.037 125.683 96.3969 125.989 96.1897 126.573C95.9826 127.157 96.2867 127.797 96.8691 128.004Z" fill="#F25482"/>
<path d="M51.6638 173.443C51.5639 173.448 51.4649 173.421 51.3804 173.366C51.2959 173.311 51.2298 173.23 51.1912 173.135C51.1526 173.04 51.1434 172.936 51.1646 172.835C51.1859 172.735 51.2367 172.643 51.3102 172.573L51.3436 172.437C51.3392 172.426 51.3348 172.415 51.3303 172.404C51.2296 172.159 51.0609 171.951 50.8454 171.805C50.6299 171.658 50.3771 171.581 50.1188 171.582C49.8606 171.583 49.6084 171.662 49.3939 171.81C49.1794 171.958 49.0122 172.168 48.9133 172.413C48.518 173.392 48.0147 174.373 47.8908 175.408C47.8362 175.865 47.8592 176.329 47.9588 176.779C47.0304 174.696 46.5482 172.433 46.5451 170.142C46.5449 169.567 46.576 168.993 46.6382 168.421C46.6896 167.953 46.7609 167.488 46.852 167.026C47.3497 164.521 48.4182 162.173 49.9697 160.175C50.7206 159.754 51.3279 159.106 51.7098 158.319C51.8481 158.036 51.9458 157.734 52 157.422C51.9153 157.434 51.6806 156.107 51.7445 156.026C51.6264 155.841 51.4151 155.75 51.2862 155.57C50.645 154.676 49.7615 154.832 49.3003 156.047C48.3151 156.558 48.3056 157.406 48.9101 158.222C49.2947 158.741 49.3476 159.443 49.685 159.998C49.6503 160.044 49.6142 160.088 49.5795 160.134C48.9448 160.973 48.3917 161.874 47.928 162.824C48.0408 161.76 47.9062 160.683 47.5353 159.682C47.1594 158.75 46.4549 157.965 45.8345 157.159C45.0893 156.191 43.5611 156.613 43.4298 157.841C43.4286 157.852 43.4273 157.864 43.4261 157.876C43.5183 157.93 43.6085 157.986 43.6967 158.046C43.8076 158.123 43.8935 158.231 43.9432 158.359C43.9929 158.486 44.0041 158.626 43.9752 158.759C43.9464 158.893 43.8789 159.015 43.7816 159.109C43.6843 159.203 43.5617 159.264 43.4299 159.285L43.4164 159.287C43.4492 159.628 43.5072 159.967 43.59 160.299C42.7941 163.464 44.5124 164.617 46.9659 164.669C47.0201 164.697 47.0729 164.726 47.127 164.753C46.6611 166.11 46.3689 167.524 46.2577 168.96C46.1947 169.806 46.1984 170.657 46.2688 171.503L46.2646 171.473C46.0869 170.532 45.5988 169.683 44.8829 169.069C43.8195 168.171 42.3172 167.841 41.17 167.119C41.0481 167.038 40.9064 166.995 40.7615 166.995C40.6166 166.994 40.4746 167.037 40.3524 167.117C40.2301 167.196 40.1325 167.311 40.0713 167.446C40.01 167.581 39.9876 167.731 40.0066 167.878C40.0081 167.889 40.0097 167.899 40.0113 167.91C40.1823 167.982 40.3488 168.064 40.5098 168.157C40.602 168.21 40.6922 168.267 40.7804 168.327C40.8913 168.403 40.9772 168.512 41.0269 168.639C41.0766 168.767 41.0878 168.906 41.0589 169.04C41.0301 169.174 40.9626 169.296 40.8653 169.39C40.768 169.483 40.6454 169.545 40.5136 169.566L40.5001 169.568C40.4904 169.569 40.482 169.571 40.4723 169.572C40.7645 170.289 41.1746 170.95 41.6847 171.524C42.1823 174.287 44.3198 174.549 46.6062 173.744H46.6076C46.8585 174.865 47.222 175.956 47.6922 177H51.5667C51.5806 176.956 51.5931 176.91 51.6056 176.866C51.247 176.889 50.8869 176.867 50.5335 176.8C50.821 176.437 51.1084 176.072 51.3959 175.709C51.4023 175.702 51.4084 175.695 51.414 175.688C51.5598 175.502 51.707 175.318 51.8528 175.132L51.8529 175.132C51.8606 174.563 51.797 173.995 51.6638 173.443Z" fill="url(#paint1_linear_61_395)" fill-opacity="0.5"/>
<path d="M52.7722 39H53.9522V46H52.7722V39ZM53.4722 40.04V39H54.8822C55.3889 39 55.8289 39.09 56.2022 39.27C56.5822 39.4433 56.8755 39.6933 57.0822 40.02C57.2889 40.34 57.3922 40.7233 57.3922 41.17C57.3922 41.6167 57.2889 42.0033 57.0822 42.33C56.8755 42.6567 56.5822 42.91 56.2022 43.09C55.8289 43.2633 55.3889 43.35 54.8822 43.35H53.4722V42.31H54.8822C55.2889 42.31 55.6155 42.2133 55.8622 42.02C56.1089 41.8267 56.2322 41.5433 56.2322 41.17C56.2322 40.7967 56.1089 40.5167 55.8622 40.33C55.6155 40.1367 55.2889 40.04 54.8822 40.04H53.4722ZM59.1903 44.2L59.4103 43.2H62.6603L62.8903 44.2H59.1903ZM61.0203 40.98L59.9203 43.55L59.9003 43.81L58.9303 46H57.6003L61.0203 38.61L64.4403 46H63.1103L62.1603 43.87L62.1303 43.58L61.0203 40.98ZM68.9015 39H70.2515L67.8715 43.05V46H66.6715V43.06L64.3015 39H65.6415L67.2715 42L68.9015 39ZM80.1654 39H81.3254V46.35L76.2154 41.3V46H75.0554V38.65L80.1654 43.7V39ZM84.2277 42.5C84.2277 42.98 84.3277 43.41 84.5277 43.79C84.7343 44.1633 85.0177 44.4567 85.3777 44.67C85.7377 44.8833 86.1477 44.99 86.6077 44.99C87.0743 44.99 87.4843 44.8833 87.8377 44.67C88.1977 44.4567 88.4777 44.1633 88.6777 43.79C88.8843 43.41 88.9877 42.98 88.9877 42.5C88.9877 42.02 88.8877 41.5933 88.6877 41.22C88.4877 40.84 88.2077 40.5433 87.8477 40.33C87.4943 40.1167 87.081 40.01 86.6077 40.01C86.1477 40.01 85.7377 40.1167 85.3777 40.33C85.0177 40.5433 84.7343 40.84 84.5277 41.22C84.3277 41.5933 84.2277 42.02 84.2277 42.5ZM82.9777 42.5C82.9777 41.9733 83.0677 41.49 83.2477 41.05C83.4277 40.61 83.681 40.23 84.0077 39.91C84.341 39.5833 84.7277 39.33 85.1677 39.15C85.6143 38.97 86.0943 38.88 86.6077 38.88C87.1343 38.88 87.6177 38.97 88.0577 39.15C88.4977 39.33 88.881 39.5833 89.2077 39.91C89.541 40.23 89.7977 40.61 89.9777 41.05C90.1577 41.49 90.2477 41.9733 90.2477 42.5C90.2477 43.02 90.1577 43.5033 89.9777 43.95C89.7977 44.3967 89.5443 44.7833 89.2177 45.11C88.891 45.4367 88.5043 45.6933 88.0577 45.88C87.6177 46.06 87.1343 46.15 86.6077 46.15C86.0877 46.15 85.6043 46.06 85.1577 45.88C84.711 45.6933 84.3243 45.4367 83.9977 45.11C83.6777 44.7833 83.4277 44.3967 83.2477 43.95C83.0677 43.5033 82.9777 43.02 82.9777 42.5ZM97.9225 43.69L99.5625 39H100.933L98.0725 46.37L95.9125 41.42L93.7525 46.37L90.8925 39H92.2625L93.9225 43.69L95.9125 38.65L97.9225 43.69Z" fill="#275259"/>
<defs>
<linearGradient id="paint0_linear_61_395" x1="82.6589" y1="119.286" x2="48.4447" y2="111.235" gradientUnits="userSpaceOnUse">
<stop stop-color="#DE6389"/>
<stop offset="1" stop-color="#EA8FA9" stop-opacity="0.8"/>
</linearGradient>
<linearGradient id="paint1_linear_61_395" x1="52.0801" y1="165.896" x2="39.9532" y2="165.896" gradientUnits="userSpaceOnUse">
<stop stop-color="#DE6389"/>
<stop offset="1" stop-color="#EA8FA9" stop-opacity="0.8"/>
</linearGradient>
</defs>
</svg>
